<svg width="24" height="24" viewBox="0 0 24 24" fill="none" xmlns="http://www.w3.org/2000/svg">
<circle cx="12" cy="12" r="12" fill="white"/>
<circle cx="12.0001" cy="12" r="10.3333" fill="#D7E9F7"/>
<path d="M7.17794 10.3821L4.80728 7.99802L4 8.80414L7.17794 12L14 5.13946L13.1984 4.33334L7.17794 10.3821Z" fill="black"/>
<path d="M10.7333 14.2564H15.2666V15.3846H10.7333V14.2564ZM17.5899 14.8205H18.6666C18.6666 13.2636 17.3973 12 15.8333 12H13.5666V13.0718H15.8333C16.8023 13.0718 17.5899 13.8559 17.5899 14.8205ZM8.40992 14.8205C8.40992 13.8559 9.19759 13.0718 10.1666 13.0718H12.4333V12H10.1666C8.60259 12 7.33325 13.2636 7.33325 14.8205C7.33325 16.3774 8.60259 17.641 10.1666 17.641H12.4333V16.5692H10.1666C9.19759 16.5692 8.40992 15.7851 8.40992 14.8205ZM16.9666 14.8205H15.8333V16.5128H14.1333V17.641H15.8333V19.3333H16.9666V17.641H18.6666V16.5128H16.9666V14.8205Z" fill="black"/>
</svg>
