<svg width="24" height="24" viewBox="0 0 24 24" fill="none" xmlns="http://www.w3.org/2000/svg">
<circle cx="12" cy="12" r="12" fill="white"/>
<circle cx="12.0001" cy="12" r="10.3333" fill="#E2C2B9"/>
<path d="M12.012 3.6432C11.8491 3.61171 11.6924 3.71768 11.6609 3.88058L11.3635 5.41966C11.332 5.58259 11.438 5.73926 11.6009 5.77074L11.7163 5.79304L11.6088 6.34952L11.601 6.34802C11.4902 6.3266 11.384 6.39908 11.3626 6.50992L9.1217 18.1069C9.00939 18.691 9.21673 19.2907 9.66584 19.6807C10.1159 20.071 10.7399 20.1916 11.303 19.9971C11.8653 19.8027 12.2815 19.3234 12.3951 18.7394L12.396 18.7396L14.6369 7.14244C14.6584 7.0316 14.5868 6.92479 14.476 6.90337L14.4682 6.90187L14.5757 6.34543L14.6912 6.36773C14.8541 6.39922 15.0108 6.29326 15.0423 6.13033L15.3397 4.59128C15.3712 4.42834 15.2652 4.27165 15.1023 4.24017L12.012 3.6432ZM12.1165 5.87041L14.1756 6.26829L14.0681 6.82473L12.6651 6.55363C12.5641 6.53411 12.4671 6.5997 12.4476 6.70068L12.4407 6.73632C12.4212 6.83743 12.4867 6.93429 12.5878 6.95381L14.198 7.26496L13.5222 10.7623L11.0483 10.2842L11.7242 6.78589L11.7321 6.7874C11.8429 6.80881 11.9489 6.73718 11.9703 6.62638L12.1165 5.87041Z" fill="#333333"/>
</svg>
