<svg width="24" height="24" viewBox="0 0 24 24" fill="none" xmlns="http://www.w3.org/2000/svg">
<circle cx="12" cy="12" r="12" fill="white"/>
<circle cx="12.0001" cy="12" r="10.3333" fill="#79B4B7"/>
<path fill-rule="evenodd" clip-rule="evenodd" d="M15.9476 8.78352H18.2419L20.5362 11.8763V15.7423H19.0066C19.0066 17.0258 17.9819 18.0619 16.7124 18.0619C15.4429 18.0619 14.4181 17.0258 14.4181 15.7423H9.82951C9.82951 17.0258 8.80473 18.0619 7.53523 18.0619C6.26573 18.0619 5.24095 17.0258 5.24095 15.7423H3.71143V7.23713C3.71143 6.38661 4.39971 5.69073 5.24095 5.69073H15.9476V8.78352ZM6.38809 15.7423C6.38809 16.384 6.90048 16.9021 7.53523 16.9021C8.16998 16.9021 8.68237 16.384 8.68237 15.7423C8.68237 15.1005 8.16998 14.5825 7.53523 14.5825C6.90048 14.5825 6.38809 15.1005 6.38809 15.7423ZM19.3584 11.8763L17.8595 9.94331H15.9476V11.8763H19.3584ZM15.5652 15.7423C15.5652 16.384 16.0776 16.9021 16.7124 16.9021C17.3471 16.9021 17.8595 16.384 17.8595 15.7423C17.8595 15.1005 17.3471 14.5825 16.7124 14.5825C16.0776 14.5825 15.5652 15.1005 15.5652 15.7423ZM8.83765 7.50886C8.83761 7.20344 9.40063 6.68073 9.40063 6.68073H9.40061C9.44067 6.66599 9.97222 7.20332 9.97217 7.50886C9.97222 7.81437 9.71863 8.06171 9.40511 8.06162C9.09168 8.06157 8.83761 7.81427 8.83765 7.50886ZM9.86934 7.53491C9.87863 7.29871 9.53927 6.92543 9.4126 6.80048H9.41256C9.27409 6.93859 8.93337 7.29831 8.93605 7.49296C8.93846 7.67501 9.10445 7.9794 9.40587 7.9713C9.70421 7.98013 9.86453 7.72366 9.86934 7.53491ZM9.36021 7.69222C9.36021 7.60479 9.4386 7.5339 9.53528 7.5339C9.63196 7.5339 9.71034 7.60479 9.71034 7.69222C9.71034 7.77966 9.63196 7.85055 9.53528 7.85055C9.4386 7.85055 9.36021 7.77966 9.36021 7.69222ZM8.78791 7.79881V7.79033L8.78779 7.79036C8.78778 7.79182 8.78783 7.79468 8.78791 7.79881ZM8.78791 7.8793V7.79881C8.78792 7.79959 8.78794 7.80041 8.78795 7.80128C8.78824 7.8166 8.78878 7.84564 8.78854 7.88306C9.0198 8.2455 9.53689 8.28806 9.92381 7.92737C9.92638 7.92594 9.92828 7.92427 9.93018 7.9226C9.93147 7.92147 9.93277 7.92033 9.93428 7.91926C9.93231 7.92167 9.93009 7.92526 9.92829 7.92737C10.0978 8.15121 9.99884 8.47349 9.57481 8.70343L9.22956 8.86174L8.30224 9.29881L6.18768 10.2846L6.23407 10.3631L8.2634 9.4145C8.32676 9.51952 8.38423 9.61248 8.43534 9.69516C8.79039 10.2695 8.83897 10.3481 8.42762 10.5322L6.76792 11.3072L6.81429 11.3857L8.38498 10.6499C8.81016 11.1871 8.91255 11.4484 8.62961 11.6097L8.57501 11.6354L6.95944 12.3898L7.00583 12.4683L8.53238 11.7531C8.57759 11.8342 8.66682 11.9308 8.75619 12.0276C8.80729 12.0829 8.85844 12.1383 8.90142 12.1908C9.0392 12.3849 8.86224 12.5214 8.68935 12.6198L6.80182 13.6083H5.19596V9.56737L6.16486 9.11513L8.78791 7.8793ZM5.19596 9.46662V8.53426C5.46991 8.64113 5.74679 8.82836 6.03124 9.07621L5.19596 9.46662ZM9.35884 10.9037V9.38505L9.50075 9.38498V10.067H10.4601V9.38498H10.603V10.9037H10.4601V10.1757H9.5006V10.9037H9.35884ZM11.0597 10.9037V9.38505L11.2018 9.38498V10.9037H11.0597ZM12.1048 10.9037L11.4798 9.38505H11.6343L12.1625 10.7159L12.1718 10.7484L12.1819 10.7159L12.7105 9.38505H12.8661L12.241 10.9037H12.1048Z" fill="#333333"/>
</svg>
