<svg width="24" height="24" viewBox="0 0 24 24" fill="none" xmlns="http://www.w3.org/2000/svg">
<g clip-path="url(#clip0)">
<circle cx="12" cy="12" r="12" fill="white"/>
<circle cx="12.0001" cy="12" r="10.3333" fill="#F0D9FF"/>
<path fill-rule="evenodd" clip-rule="evenodd" d="M12 20.7593C16.8377 20.7593 20.7593 16.8376 20.7593 12C20.7593 7.16237 16.8377 3.24069 12 3.24069C7.1624 3.24069 3.24072 7.16237 3.24072 12C3.24072 16.8376 7.1624 20.7593 12 20.7593Z" fill="#333333"/>
<ellipse cx="12" cy="12" rx="7.73538" ry="7.73538" fill="#F0D9FF"/>
<g clip-path="url(#clip1)">
<path d="M11.1456 11.5728C12.0897 11.5728 12.8543 10.8082 12.8543 9.8642C12.8543 8.92018 12.0897 8.15556 11.1456 8.15556C10.2016 8.15556 9.43701 8.92018 9.43701 9.8642C9.43701 10.8082 10.2016 11.5728 11.1456 11.5728ZM11.1456 9.00988C11.6155 9.00988 12 9.39433 12 9.8642C12 10.3341 11.6155 10.7185 11.1456 10.7185C10.6758 10.7185 10.2913 10.3341 10.2913 9.8642C10.2913 9.39433 10.6758 9.00988 11.1456 9.00988Z" fill="#333333"/>
<path d="M8.58283 14.1358C8.67681 13.8282 9.99673 13.2815 11.1458 13.2815C11.1458 12.9825 11.2013 12.6963 11.2953 12.4314C10.1292 12.3887 7.72852 12.9696 7.72852 14.1358V14.9901H11.8036C11.5815 14.7424 11.4064 14.4562 11.2953 14.1358H8.58283Z" fill="#333333"/>
<path d="M15.1738 14.1443C15.3276 13.8923 15.4173 13.5976 15.4173 13.2815C15.4173 12.3375 14.6527 11.5728 13.7086 11.5728C12.7646 11.5728 12 12.3375 12 13.2815C12 14.2255 12.7646 14.9901 13.7086 14.9901C14.0247 14.9901 14.3195 14.8961 14.5715 14.7466C14.9688 15.1439 15.2635 15.4386 15.6693 15.8444L16.2716 15.2421C15.6309 14.6014 15.9341 14.9004 15.1738 14.1443ZM13.7086 14.1358C13.2388 14.1358 12.8543 13.7514 12.8543 13.2815C12.8543 12.8116 13.2388 12.4272 13.7086 12.4272C14.1785 12.4272 14.563 12.8116 14.563 13.2815C14.563 13.7514 14.1785 14.1358 13.7086 14.1358Z" fill="#333333"/>
</g>
</g>
<defs>
<clipPath id="clip0">
<rect width="24" height="24" fill="white"/>
</clipPath>
<clipPath id="clip1">
<rect width="8.54318" height="7.68887" fill="white" transform="translate(7.72852 8.15556)"/>
</clipPath>
</defs>
</svg>
