<svg width="24" height="24" viewBox="0 0 24 24" fill="none" xmlns="http://www.w3.org/2000/svg">
<circle cx="12" cy="12" r="12" fill="white"/>
<circle cx="12.0001" cy="12" r="10.3333" fill="#FFC069"/>
<path d="M13.9847 4.66723C13.9847 4.66723 13.0048 5.67318 13.0049 6.26094C13.0048 6.84869 13.447 7.32463 13.9925 7.32473C14.5382 7.32489 14.9796 6.84889 14.9795 6.26094C14.9796 5.67295 14.0544 4.63886 13.9847 4.66723H13.9847ZM14.0056 4.89769C14.226 5.13816 14.8167 5.85652 14.8005 6.31108C14.7921 6.67433 14.5131 7.16789 13.9939 7.15089C13.4693 7.16649 13.1804 6.58071 13.1762 6.23035C13.1715 5.85575 13.7645 5.16349 14.0055 4.89769H14.0056ZM14.2191 6.30915C14.0508 6.30915 13.9144 6.44556 13.9144 6.61383C13.9144 6.78209 14.0508 6.91853 14.2191 6.91853C14.3874 6.91853 14.5238 6.78209 14.5238 6.61383C14.5238 6.44556 14.3874 6.30915 14.2191 6.30915ZM12.9183 6.80263C12.9182 6.84716 12.9182 6.92033 12.9183 6.97386L8.35306 9.35216L6.66675 10.2225V17.9991H9.46166L12.7468 16.0968C13.0477 15.9075 13.3557 15.6447 13.1159 15.2712C12.9102 14.9932 12.5973 14.6742 12.4736 14.4289L9.81672 15.8052L9.73599 15.6542L12.5478 14.2023L12.6428 14.1529C13.1353 13.8425 12.9571 13.3397 12.2171 12.3059L9.48336 13.7219L9.40266 13.5708L12.2913 12.0793C13.1103 11.6739 12.8817 11.5344 12.0055 9.92829L8.47351 11.7538L8.39278 11.6028L12.0731 9.70566L13.687 8.86453L14.2879 8.55986C15.0259 8.11736 15.1982 7.49713 14.9031 7.06636C14.9062 7.06229 14.9101 7.05539 14.9135 7.05076C14.907 7.05583 14.9028 7.06173 14.8953 7.06636C14.2219 7.76049 13.3219 7.67859 12.9194 6.98109C12.92 6.88339 12.9181 6.81539 12.9181 6.80269L12.9183 6.80263ZM6.66675 8.23429V10.0286L8.12049 9.27726C7.62543 8.80029 7.14354 8.43996 6.66675 8.23429ZM13.912 9.87163V12.7941H14.1587V11.3931H15.8287V12.7941H16.0773V9.87149H15.8287V11.184H14.159V9.87149L13.912 9.87163ZM16.8723 9.87163V12.7941H17.1196V9.87149L16.8723 9.87163ZM17.6034 9.87163L18.6913 12.7941H18.9283L20.0161 9.87163H19.7453L18.8254 12.4328L18.8078 12.4953L18.7915 12.4328L17.8723 9.87163H17.6034Z" fill="#333333"/>
</svg>
