<svg width="24" height="24" viewBox="0 0 24 24" fill="none" xmlns="http://www.w3.org/2000/svg">
<circle cx="12" cy="12" r="12" fill="white"/>
<circle cx="12.0001" cy="12" r="10.3333" fill="#BFD8B8"/>
<path fill-rule="evenodd" clip-rule="evenodd" d="M11.4773 4.6215C11.0493 4.63451 10.6194 4.77203 10.2442 5.04198L9.79333 5.36685C8.7927 6.08678 8.79088 7.30947 9.51086 8.30986L10.8103 10.1167L12.1108 11.9228L14.7107 15.5342C15.4305 16.5349 16.8151 16.7613 17.8158 16.0416C18.8165 15.3217 19.0418 13.936 18.322 12.9353L15.7231 9.32284L14.4236 7.51591L13.1242 5.71018C12.6742 5.08477 12.1908 4.59991 11.4773 4.6215ZM15.0764 9.7879L15.4046 10.244L15.9826 11.0468L16.4087 11.6392L17.0735 12.5637L17.6514 13.3664C18.1137 14.0089 17.9679 14.8978 17.3255 15.3601C16.683 15.8224 15.794 15.6777 15.3318 15.0352L14.7538 14.2325L14.089 13.308L13.6629 12.7155L13.5122 12.5058L13.085 11.9128L12.7568 11.4579L13.6913 10.7853L14.143 10.4604L15.0764 9.7879Z" fill="#333333"/>
<path fill-rule="evenodd" clip-rule="evenodd" d="M17.3295 18.1436C17.6346 17.8432 17.8565 17.4502 17.9484 16.9971L18.0583 16.4524C18.3031 15.2442 17.4735 14.3461 16.2654 14.1015L14.0843 13.6592L11.9028 13.2181L7.54123 12.3358C6.3331 12.0909 5.16354 12.8658 4.91862 14.0739C4.67371 15.2821 5.45017 16.4517 6.65834 16.6966L11.0199 17.5803L13.2011 18.0227L15.3816 18.4642C16.1367 18.6172 16.8208 18.6443 17.3295 18.1436ZM11.1782 16.7997L10.6274 16.6881L9.6579 16.4921L8.94269 16.3471L7.82676 16.1207L6.85723 15.9246C6.08151 15.7674 5.5843 15.0163 5.74142 14.2406C5.89858 13.4648 6.64897 12.9668 7.42473 13.1239L8.39425 13.32L9.51022 13.5464L10.2254 13.6914L10.4785 13.7428L11.1949 13.8875L11.7449 13.9982L11.5164 15.1267L11.4059 15.672L11.1782 16.7997Z" fill="#333333"/>
</svg>
