<svg width="24" height="24" viewBox="0 0 24 24" fill="none" xmlns="http://www.w3.org/2000/svg">
<circle cx="12" cy="12" r="12" fill="white"/>
<circle cx="12.0669" cy="12.067" r="10.335" fill="#F8F0DF"/>
<path fill-rule="evenodd" clip-rule="evenodd" d="M2.45895 14.5149C2.20548 14.0242 2.39778 13.421 2.88846 13.1675L17.8111 5.45895C18.3018 5.20548 18.905 5.39778 19.1585 5.88846L21.1736 9.78938C21.4271 10.2801 21.2348 10.8833 20.7441 11.1368L5.82146 18.8454C5.33078 19.0988 4.72752 18.9065 4.47405 18.4158L2.45895 14.5149ZM18.7452 8.57288C19.2216 9.49517 18.8602 10.629 17.9379 11.1055C17.0156 11.5819 15.8817 11.2205 15.4053 10.2982C14.9289 9.37588 15.2903 8.242 16.2126 7.76557C17.1349 7.28915 18.2688 7.65059 18.7452 8.57288ZM10.2625 12.1086L8.59075 12.9721L9.28087 14.3081L10.9526 13.4445L10.2625 12.1086ZM14.2991 10.0234L10.5887 11.9401L11.2788 13.276L14.9892 11.3594L14.2991 10.0234ZM5.72703 15.769C5.75649 15.6944 5.75362 15.6134 5.71843 15.526L5.58319 15.5959C5.60486 15.6554 5.60848 15.7041 5.59403 15.7419C5.57957 15.7797 5.54569 15.8124 5.49238 15.8399C5.43406 15.8701 5.37824 15.8708 5.32491 15.8421C5.27193 15.8133 5.22364 15.7567 5.18002 15.6722L5.14426 15.603C5.10191 15.5193 5.08539 15.4478 5.0947 15.3886C5.10418 15.3289 5.13843 15.2837 5.19747 15.2532C5.24827 15.227 5.29321 15.2197 5.33226 15.2312C5.37149 15.2422 5.40883 15.2741 5.44429 15.327L5.57954 15.2571C5.52678 15.1761 5.46199 15.1257 5.38519 15.106C5.30838 15.0863 5.22686 15.0987 5.14064 15.1432C5.07659 15.1763 5.02792 15.2207 4.99461 15.2764C4.96166 15.332 4.94663 15.3946 4.94953 15.4643C4.95243 15.5339 4.97292 15.6056 5.01099 15.6793L5.0487 15.7523C5.08692 15.8237 5.13296 15.8799 5.18681 15.921C5.24066 15.962 5.29888 15.9852 5.36144 15.9905C5.42418 15.9953 5.48668 15.9816 5.54894 15.9494C5.63803 15.9034 5.69739 15.8433 5.72703 15.769ZM4.57408 16.2089L4.87677 16.0526L5.03462 16.2015L5.1763 16.1283L4.47694 15.4997L4.35511 15.5626L4.46359 16.4965L4.60473 16.4236L4.57408 16.2089ZM4.50142 15.6971L4.78211 15.9628L4.55563 16.0798L4.50142 15.6971ZM6.17306 14.7622L5.92941 14.8881L6.2765 15.56L6.1418 15.6296L5.7947 14.9577L5.55319 15.0824L5.49664 14.9729L6.1165 14.6527L6.17306 14.7622ZM6.63125 15.3767L6.7665 15.3069L6.36284 14.5255L6.2276 14.5953L6.63125 15.3767ZM7.36574 14.5282C7.40529 14.6048 7.4268 14.6789 7.43026 14.7505C7.43354 14.8218 7.41854 14.8857 7.38524 14.9424C7.35212 14.9985 7.30353 15.0431 7.23949 15.0761C7.17616 15.1089 7.11168 15.1227 7.04606 15.1176C6.9806 15.112 6.91949 15.0876 6.86273 15.0444C6.80632 15.001 6.75863 14.942 6.71964 14.8674L6.69691 14.8234C6.65754 14.7472 6.63621 14.673 6.63292 14.6008C6.62999 14.5284 6.64508 14.4642 6.6782 14.4081C6.7115 14.3515 6.75999 14.3067 6.82367 14.2738C6.88736 14.2409 6.95166 14.2272 7.01657 14.2326C7.08166 14.2376 7.1425 14.2619 7.19909 14.3056C7.25549 14.349 7.30356 14.4087 7.34328 14.4847L7.36574 14.5282ZM7.20889 14.5576C7.16416 14.471 7.11342 14.4131 7.05666 14.384C7.00026 14.3546 6.942 14.3555 6.8819 14.3865C6.82322 14.4168 6.78916 14.4637 6.77973 14.527C6.77047 14.5898 6.7872 14.6634 6.82992 14.7479L6.8532 14.793C6.89756 14.8788 6.94849 14.9366 7.00597 14.9663C7.06382 14.9958 7.12243 14.9952 7.18183 14.9645C7.24193 14.9335 7.27626 14.8867 7.28481 14.8243C7.29371 14.7617 7.27542 14.6864 7.22996 14.5983L7.20889 14.5576ZM8.17636 14.5786L8.31214 14.5084L7.90849 13.727L7.77378 13.7966L8.06128 14.3532L7.4244 13.9771L7.28862 14.0472L7.69227 14.8286L7.82805 14.7585L7.54167 14.2041L8.17636 14.5786ZM17.4203 10.1035C17.7892 9.91295 17.9338 9.4594 17.7432 9.09048C17.5526 8.72157 17.0991 8.57699 16.7302 8.76756C16.3613 8.95813 16.2167 9.41168 16.4072 9.7806C16.5978 10.1495 17.0514 10.2941 17.4203 10.1035Z" fill="#333333"/>
</svg>
