<svg xmlns="http://www.w3.org/2000/svg" viewBox="0 0 6.35 6.35" xmlns:v="https://vecta.io/nano"><circle cx="3.175" cy="3.175" r="2.646" fill="#FAEF91" fill-rule="evenodd"/><g fill="#000000"><path d="M3.175 1.518a1.66 1.66 0 0 0-1.66 1.657 1.66 1.66 0 1 0 3.32 0 1.66 1.66 0 0 0-1.66-1.657zm0 2.983a1.33 1.33 0 0 1-1.328-1.326 1.33 1.33 0 0 1 1.328-1.326 1.33 1.33 0 0 1 1.328 1.326 1.33 1.33 0 0 1-1.328 1.326z"/><path d="M3.673 2.263v.414H3v.33h.664v.414l.58-.58zm-.996.663l-.58.58.58.58v-.414h.664v-.33h-.664z"/></g></svg>