<svg xmlns="http://www.w3.org/2000/svg" xmlns:xlink="http://www.w3.org/1999/xlink" viewBox="0 0 6.35 6.35" xmlns:v="https://vecta.io/nano"><g transform="matrix(.333365 0 0 .333092 -2.211667 -97.578864)"><ellipse ry="7.943" rx="7.937" cy="302.481" cx="16.158" fill="#ffc61d" fill-rule="evenodd"/><g fill="#000000"><path d="M20.426 304.27a.15.15 0 0 0-.149.15v1.806a.88.88 0 0 1-.876.877h-6.236a.88.88 0 0 1-.876-.877V301.6a.15.15 0 0 0-.149-.15.15.15 0 0 0-.149.15v4.617c0 .648.527 1.176 1.175 1.176H19.4c.648 0 1.175-.528 1.175-1.176v-1.806a.15.15 0 0 0-.149-.15z"/><path d="M19.4 297.196h-6.236c-.648 0-1.175.528-1.175 1.176v2.64a.15.15 0 0 0 .149.15.15.15 0 0 0 .149-.15v-2.64a.88.88 0 0 1 .876-.877H19.4a.88.88 0 0 1 .876.877v5.45a.15.15 0 0 0 .149.15.15.15 0 0 0 .149-.15v-5.45c0-.648-.527-1.176-1.175-1.176z"/><use xlink:href="#B"/><use xlink:href="#B" x="3.904"/><use xlink:href="#B" y="2.672"/><use xlink:href="#B" x="3.904" y="2.672"/><path d="M14.33 304.283a1.09 1.09 0 0 0-1.086 1.087 1.09 1.09 0 0 0 1.086 1.087 1.09 1.09 0 0 0 1.086-1.087 1.09 1.09 0 0 0-1.086-1.087zm-.787 1.087a.79.79 0 0 1 .787-.787.78.78 0 0 1 .44.135L13.68 305.8c-.085-.126-.135-.278-.135-.44zm.787.787a.78.78 0 0 1-.44-.135l1.092-1.093c.085.126.135.278.135.44a.79.79 0 0 1-.787.788z"/><use xlink:href="#B" x="3.904" y="5.343"/><use xlink:href="#C"/><use xlink:href="#C" x="2.672"/><path d="M16.7 298.235a.15.15 0 0 0-.211.014c-.053.06-.132.095-.217.095s-.165-.035-.217-.095a.15.15 0 0 0-.211-.014.15.15 0 0 0-.014.211c.11.125.27.197.442.197s.333-.072.442-.197a.15.15 0 0 0-.014-.211z"/></g></g><defs ><path id="B" d="M14.33 298.94a1.09 1.09 0 0 0-1.086 1.087 1.09 1.09 0 0 0 1.086 1.087 1.09 1.09 0 0 0 1.086-1.087 1.09 1.09 0 0 0-1.086-1.087zm-.787 1.087a.79.79 0 0 1 .787-.787.78.78 0 0 1 .44.135l-1.092 1.093c-.085-.126-.135-.278-.135-.44zm.787.787a.78.78 0 0 1-.44-.135l1.092-1.093c.085.126.135.278.135.44a.79.79 0 0 1-.787.788z"/><path id="C" d="M14.946 297.973a.15.15 0 0 0-.149.15v.242a.15.15 0 0 0 .149.15.15.15 0 0 0 .149-.15v-.242a.15.15 0 0 0-.149-.15z"/></defs></svg>