<svg xmlns="http://www.w3.org/2000/svg" viewBox="0 0 6.35 6.35" xmlns:v="https://vecta.io/nano"><g transform="matrix(.333365 0 0 .333092 -2.211667 -97.578864)"><ellipse ry="7.943" rx="7.937" cy="302.481" cx="16.158" fill="#6FCF97" fill-rule="evenodd"/><path d="M14.816 297.195c-.824 0-1.488.665-1.488 1.5 0 .174.035.343.09.497v.02H12.2a.99.99 0 0 0-.987.993v1.986a.99.99 0 0 1 .987.993c0 .546-.442.993-.992.993v1.986c0 .546.446.993.992.993h7.938c.546 0 .992-.447.992-.993v-1.986c-.546 0-.992-.447-.992-.993s.446-.993.992-.993v-1.986c0-.546-.446-.993-.992-.993h-.936v-.02c.055-.154.09-.323.09-.497 0-.824-.665-1.5-1.488-1.5-.52 0-.972.268-1.24.67l-.248.333-.248-.337c-.268-.397-.72-.665-1.24-.665zm0 .993a.5.5 0 0 1 .496.497.5.5 0 0 1-.496.497.5.5 0 0 1-.496-.497.5.5 0 0 1 .496-.497zm2.977 0a.5.5 0 0 1 .496.497.5.5 0 0 1-.496.497.5.5 0 0 1-.496-.497.5.5 0 0 1 .496-.497zm-5.602 2.007h2.65l-1.016 1.384.803.58 1.443-1.965h.47l1.443 1.965.803-.58-1.016-1.384h2.36v1.26c-.6.343-.992.99-.992 1.718s.402 1.376.992 1.718v1.26H12.2v-1.26c.6-.343.992-.99.992-1.718s-.397-1.376-.987-1.718zm2.025 2.2a.789.79 0 0 0-.789.79.789.79 0 0 0 .789.789.789.79 0 0 0 .79-.789.789.79 0 0 0-.79-.79zm1.93 0a.789.79 0 0 0-.79.79.789.79 0 0 0 .79.789.789.79 0 0 0 .789-.789.789.79 0 0 0-.789-.79zm1.93 0a.789.79 0 0 0-.79.79.789.79 0 0 0 .79.789.789.79 0 0 0 .789-.789.789.79 0 0 0-.789-.79z" fill="#4F4F4F"/></g></svg>