<svg xmlns="http://www.w3.org/2000/svg" viewBox="0 0 6.35 6.35" xmlns:v="https://vecta.io/nano"><g transform="matrix(.333365 0 0 .333092 -2.211667 -97.578864)"><ellipse ry="7.943" rx="7.937" cy="302.481" cx="16.158" fill="#fb9a99" fill-rule="evenodd"/><path d="M12.764 301.466l2.336 2.4v3.262h-.018v.01h-1.916v-1.408l-1.955-2.585a.55.55 0 0 1-.13-.345v-3.972c0-.3.252-.564.564-.564s.563.253.563.564v2.294a.74.74 0 0 0-.37.19.76.76 0 0 0-.015 1.072l1.067 1.098.145-.142-1.068-1.095a.56.56 0 0 1 .01-.789c.07-.065.15-.1.236-.135.093-.026.2-.028.28-.01a.56.56 0 0 1 .27.156zm6.806 0l-2.338 2.4v3.262h.02v.01h1.917v-1.408l1.954-2.585a.55.55 0 0 0 .13-.345v-3.972c0-.3-.252-.564-.564-.564s-.563.253-.563.564v2.294c.137.03.266.087.37.2a.76.76 0 0 1 .015 1.072l-1.067 1.098-.146-.142 1.07-1.095a.56.56 0 0 0-.011-.789.57.57 0 0 0-.236-.135.58.58 0 0 0-.28-.009.57.57 0 0 0-.27.156zm-3.405.894a2.14 2.14 0 0 0 1.564-.651 2.13 2.13 0 0 0 .65-1.566c0-.614-.216-1.134-.65-1.566a2.12 2.12 0 0 0-1.564-.645 2.11 2.11 0 0 0-1.562.645 2.12 2.12 0 0 0-.649 1.566c0 .614.213 1.133.65 1.566.428.43.95.65 1.562.65z" fill="#4F4F4F"/></g></svg>