<svg xmlns="http://www.w3.org/2000/svg" viewBox="0 0 6.35 6.35" xmlns:v="https://vecta.io/nano"><g transform="matrix(.333365 0 0 .333092 -2.211667 -97.578864)"><ellipse ry="7.943" rx="7.937" cy="302.481" cx="16.158" fill="#78A9DE" fill-rule="evenodd"/><path d="M20.775 303.12l-.286-.045c-.118-.02-.23.06-.25.18l-.05.263c-.338 1.508-1.5 2.702-2.984 3.094a4.13 4.13 0 0 1-4.116-1.231l-.192-.313.736.166c.117.026.234-.047.26-.165l.063-.283c.026-.117-.047-.234-.165-.26l-1.553-.352c-.057-.013-.116-.002-.165.03l-.174.1a.22.22 0 0 0-.097.136l-.35 1.557c-.026.117.047.234.165.26l.282.063c.117.026.234-.047.26-.165l.15-.67.204.322.02.03a4.85 4.85 0 0 0 4.84 1.47 4.86 4.86 0 0 0 3.52-3.636q.035-.15.06-.302c.01-.058-.002-.118-.036-.166s-.086-.08-.145-.1zm-.983-2.48c.027.053.075.092.132.1s.118.01.17-.02l.255-.14c.053-.027.092-.075.108-.132s.01-.12-.02-.17a4.84 4.84 0 0 0-.338-.538c-.07-.096-.205-.118-.302-.048l-.234.17c-.096.07-.118.205-.048.302.103.15.196.306.278.467zm-4.855-2.217c.028.115.143.186.258.16a4.12 4.12 0 0 1 .533-.091c.12-.013.206-.12.193-.24l-.03-.3a.22.22 0 0 0-.077-.148c-.044-.038-.1-.055-.16-.05-.2.023-.42.06-.627.112-.056.014-.105.05-.135.098s-.04.1-.026.165zm1.863.1q.13.02.26.05h0l.266.07c.056.016.116.01.167-.02s.088-.076.104-.132l.082-.27c.016-.056.01-.116-.02-.167s-.076-.088-.132-.104l-.307-.085-.302-.06c-.118-.02-.23.06-.25.18l-.045.287a.22.22 0 0 0 .175.25zm-4.708 1.84l.248.15a.23.23 0 0 0 .166.028c.056-.012.106-.05.136-.1a4.15 4.15 0 0 1 .313-.441c.073-.093.06-.227-.032-.302l-.23-.186c-.093-.073-.227-.06-.302.032-.134.165-.257.34-.37.52-.062.102-.03.234.07.298zm1.338-1.152c.07.096.205.118.302.048.145-.106.296-.202.453-.3.053-.027.092-.075.108-.132s.01-.12-.02-.17l-.136-.248c-.027-.053-.075-.092-.132-.1s-.118-.01-.17.02a4.85 4.85 0 0 0-.527.342c-.096.07-.118.205-.048.302zm4.892-.13a4.27 4.27 0 0 1 .44.313c.093.073.227.06.302-.032l.183-.225c.073-.093.06-.227-.032-.302a4.71 4.71 0 0 0-.515-.372.23.23 0 0 0-.166-.028c-.056.012-.106.05-.136.1l-.15.248c-.03.05-.04.1-.025.165s.05.104.1.134zm1.858 2.562a4.15 4.15 0 0 1 .092.534c.013.12.12.206.24.194l.3-.03c.12-.013.206-.12.193-.24a4.98 4.98 0 0 0-.107-.627c-.014-.056-.05-.105-.098-.135s-.1-.04-.165-.026l-.282.068c-.116.028-.188.145-.16.262zm-8.592.153l.284.063c.116.027.23-.045.26-.16l.066-.26c.016-.056.01-.116-.02-.167s-.076-.088-.132-.104l-.278-.082c-.056-.016-.116-.01-.167.02s-.088.076-.104.132q-.044.15-.08.302c-.022.116.052.23.168.254z" fill="#4F4F4F"/></g></svg>