<svg width="24" height="24" viewBox="0 0 24 24" fill="none" xmlns="http://www.w3.org/2000/svg">
<path d="M5.6 5C4.72 5 4.00781 5.7875 4.00781 6.75V10.25C4.88781 10.25 5.6 11.0375 5.6 12C5.6 12.9625 4.888 13.75 4 13.75V17.25C4 18.2125 4.72 19 5.6 19H18.4C19.28 19 20 18.2125 20 17.25V13.75C19.12 13.75 18.4 12.9625 18.4 12C18.4 11.0375 19.12 10.25 20 10.25V6.75C20 5.7875 19.28 5 18.4 5H5.6ZM5.6 6.75H18.4V8.97168C17.448 9.57543 16.8 10.7137 16.8 12C16.8 13.2862 17.448 14.4246 18.4 15.0283V17.25H5.6V15.0283C6.552 14.4246 7.2 13.2862 7.2 12C7.2 10.705 6.55981 9.57543 5.60781 8.97168L5.6 6.75ZM8.86562 10.6089C8.52811 10.6092 8.20453 10.756 7.96602 11.0172C7.7275 11.2784 7.59358 11.6325 7.59375 12.0017C7.59399 12.3706 7.72813 12.7242 7.9666 12.9851C8.20507 13.2459 8.52838 13.3926 8.86562 13.3928C9.20314 13.393 9.52682 13.2466 9.76562 12.9857C10.0044 12.7248 10.1388 12.3709 10.1391 12.0017C10.1391 11.8188 10.1063 11.6376 10.0424 11.4686C9.97842 11.2996 9.88448 11.146 9.76621 11.0166C9.64794 10.8873 9.50766 10.7847 9.35312 10.7147C9.19859 10.6447 9.03288 10.6088 8.86562 10.6089V10.6089ZM11.9781 10.6089C11.8109 10.6088 11.6452 10.6447 11.4906 10.7147C11.3361 10.7847 11.1958 10.8873 11.0775 11.0166C10.9593 11.146 10.8653 11.2996 10.8014 11.4686C10.7374 11.6376 10.7046 11.8188 10.7047 12.0017C10.7049 12.3709 10.8393 12.7248 11.0781 12.9857C11.3169 13.2466 11.6406 13.393 11.9781 13.3928C12.3154 13.3926 12.6387 13.2459 12.8771 12.9851C13.1156 12.7242 13.2498 12.3706 13.25 12.0017C13.2502 11.6325 13.1162 11.2784 12.8777 11.0172C12.6392 10.756 12.3156 10.6092 11.9781 10.6089V10.6089ZM15.0891 10.6089C14.9218 10.6088 14.7561 10.6447 14.6016 10.7147C14.447 10.7847 14.3067 10.8873 14.1885 11.0166C14.0702 11.146 13.9763 11.2996 13.9123 11.4686C13.8483 11.6376 13.8155 11.8188 13.8156 12.0017C13.8159 12.3709 13.9503 12.7248 14.1891 12.9857C14.4279 13.2466 14.7515 13.393 15.0891 13.3928C15.4263 13.3926 15.7496 13.2459 15.9881 12.9851C16.2266 12.7242 16.3607 12.3706 16.3609 12.0017C16.3611 11.6325 16.2272 11.2784 15.9887 11.0172C15.7502 10.756 15.4266 10.6092 15.0891 10.6089V10.6089Z" fill="#333333" fill-opacity="0.87"/>
</svg>
