<svg width="162" height="162" viewBox="0 0 162 162" fill="none" xmlns="http://www.w3.org/2000/svg">
<path fill-rule="evenodd" clip-rule="evenodd" d="M130.613 67.77C126.022 44.4825 105.57 27 81 27C61.4925 27 44.55 38.07 36.1125 54.27C15.795 56.43 0 73.6425 0 94.5C0 116.842 18.1575 135 40.5 135H128.25C146.88 135 162 119.88 162 101.25C162 83.43 148.163 68.985 130.613 67.77ZM128.25 121.5H40.5C25.5825 121.5 13.5 109.418 13.5 94.5C13.5 79.5825 25.5825 67.5 40.5 67.5H45.2925C49.7475 51.9075 63.99 40.5 81 40.5C101.52 40.5 118.125 57.105 118.125 77.625V81H128.25C139.455 81 148.5 90.045 148.5 101.25C148.5 112.455 139.455 121.5 128.25 121.5ZM42 149.75C42 154.168 38.6421 157.75 34.5 157.75C30.3579 157.75 27 154.168 27 149.75C27 145.332 30.3579 141.75 34.5 141.75C38.6421 141.75 42 145.332 42 149.75ZM60.498 157.75C64.6402 157.75 67.998 154.168 67.998 149.75C67.998 145.332 64.6402 141.75 60.498 141.75C56.3559 141.75 52.998 145.332 52.998 149.75C52.998 154.168 56.3559 157.75 60.498 157.75Z" fill="#BDBDBD"/>
</svg>
