<svg width="162" height="162" viewBox="0 0 162 162" fill="none" xmlns="http://www.w3.org/2000/svg">
<path d="M130.613 67.77C126.022 44.4825 105.57 27 81 27C71.01 27 61.7625 29.9025 53.9325 34.8975L63.7875 44.7525C68.9175 42.0525 74.79 40.5 81 40.5C101.52 40.5 118.125 57.105 118.125 77.625V81H128.25C139.455 81 148.5 90.045 148.5 101.25C148.5 108.878 144.18 115.493 137.97 118.935L147.757 128.722C156.33 122.58 162 112.59 162 101.25C162 83.43 148.163 68.985 130.613 67.77ZM20.25 35.5725L38.8125 54.0675C17.28 55.0125 0 72.6975 0 94.5C0 116.842 18.1575 135 40.5 135H119.677L133.177 148.5L141.75 139.927L28.8225 27L20.25 35.5725ZM52.1775 67.5L106.177 121.5H40.5C25.5825 121.5 13.5 109.418 13.5 94.5C13.5 79.5825 25.5825 67.5 40.5 67.5H52.1775Z" fill="#BDBDBD"/>
</svg>
