<svg width="162" height="162" viewBox="0 0 162 162" fill="none" xmlns="http://www.w3.org/2000/svg">
<path fill-rule="evenodd" clip-rule="evenodd" d="M81 27C105.57 27 126.022 44.4825 130.613 67.77C148.163 68.985 162 83.43 162 101.25C162 112.59 156.33 122.58 147.757 128.722L137.97 118.935C144.18 115.493 148.5 108.878 148.5 101.25C148.5 90.045 139.455 81 128.25 81H118.125V77.625C118.125 57.105 101.52 40.5 81 40.5C74.79 40.5 68.9175 42.0525 63.7875 44.7525L53.9325 34.8975C61.7625 29.9025 71.01 27 81 27ZM38.8125 54.0675L20.25 35.5725L28.8225 27L141.75 139.927L133.177 148.5L119.677 135H40.5C18.1575 135 0 116.842 0 94.5C0 72.6975 17.28 55.0125 38.8125 54.0675ZM40.5 121.5H106.177L52.1775 67.5H40.5C25.5825 67.5 13.5 79.5825 13.5 94.5C13.5 109.418 25.5825 121.5 40.5 121.5ZM34.5 157.75C38.6421 157.75 42 154.168 42 149.75C42 145.332 38.6421 141.75 34.5 141.75C30.3579 141.75 27 145.332 27 149.75C27 154.168 30.3579 157.75 34.5 157.75Z" fill="#BDBDBD"/>
</svg>
