<svg width="40" height="40" viewBox="0 0 40 40" fill="none" xmlns="http://www.w3.org/2000/svg">
<path d="M20.0449 10L20.0371 11.25C20.3769 11.2519 20.7219 11.2738 21.0684 11.3164C21.415 11.359 21.7538 11.4215 22.084 11.502L22.3789 10.2871C22.0015 10.1952 21.6156 10.1248 21.2207 10.0762C20.8258 10.0277 20.4332 10.0022 20.0449 10ZM18.4805 10.1152C17.6951 10.2355 16.935 10.447 16.2148 10.7422L16.6895 11.8984C17.3194 11.6402 17.9835 11.4548 18.6699 11.3496L18.4805 10.1152ZM23.8691 10.7773L23.3867 11.9297C24.0272 12.198 24.6272 12.5402 25.1758 12.9434L25.916 11.9355C25.2889 11.4745 24.602 11.0844 23.8691 10.7773ZM14.8145 11.4512C14.1427 11.8593 13.5196 12.3436 12.9609 12.8965L13.8398 13.7852C14.3291 13.301 14.8746 12.875 15.4629 12.5176L14.8145 11.4512ZM27.1035 12.9609L26.2148 13.8398C26.699 14.3291 27.125 14.8746 27.4824 15.4629L28.5488 14.8145C28.1407 14.1427 27.6564 13.5196 27.1035 12.9609ZM11.9355 14.084C11.4745 14.7111 11.0844 15.398 10.7773 16.1309L11.9297 16.6133C12.198 15.9728 12.5402 15.3728 12.9434 14.8242L11.9355 14.084ZM29.2578 16.2148L28.1016 16.6895C28.3598 17.3194 28.5452 17.9835 28.6504 18.6699L29.8848 18.4805C29.7645 17.6951 29.553 16.935 29.2578 16.2148ZM10.2871 17.6211C10.1952 17.9985 10.1248 18.3844 10.0762 18.7793C10.0277 19.1742 10.0022 19.5668 10 19.9551L11.25 19.9629C11.2519 19.6231 11.2738 19.2781 11.3164 18.9316C11.359 18.585 11.4215 18.2462 11.502 17.916L10.2871 17.6211ZM28.75 20C28.75 20.1894 28.7423 20.3781 28.7305 20.5645C28.7195 20.7319 28.7044 20.8997 28.6836 21.0684C28.641 21.415 28.5785 21.7538 28.498 22.084H28.5C28.0686 23.8496 27.1002 25.4051 25.7793 26.5684C25.3926 26.9084 24.9776 27.2148 24.5371 27.4824C24.1473 27.7193 23.7372 27.9271 23.3105 28.1016C23.1165 28.1811 22.9189 28.2528 22.7188 28.3184C21.8627 28.598 20.9494 28.75 20 28.75C19.8157 28.75 19.6326 28.7437 19.4512 28.7324C19.2788 28.7214 19.1055 28.705 18.9316 28.6836C18.585 28.641 18.2462 28.5785 17.916 28.498V28.5C16.2383 28.0901 14.7515 27.1958 13.6094 25.9746L15.834 23.75H10.834V28.75L12.7246 26.8594C12.7815 26.9198 12.8381 26.9801 12.8965 27.0391C13.2648 27.4108 13.6634 27.7521 14.0859 28.0625L14.084 28.0645C14.6945 28.5132 15.3613 28.894 16.0723 29.1973C17.1026 29.6379 18.2206 29.9104 19.3945 29.9805C19.5818 29.992 19.7694 29.9989 19.9551 30H20C20.5167 30 21.024 29.9604 21.5195 29.8848C21.9377 29.8208 22.3486 29.7303 22.75 29.6152C24.2023 29.2007 25.5201 28.4678 26.6211 27.4941C26.7639 27.3681 26.9036 27.2376 27.0391 27.1035C27.4107 26.7352 27.7521 26.3366 28.0625 25.9141L28.0645 25.916C28.5197 25.2967 28.9056 24.6209 29.2109 23.8984C29.6419 22.8809 29.9098 21.7759 29.9805 20.6191C29.9927 20.4267 29.9989 20.2355 30 20.0449H29.998C29.9981 20.0299 30 20.015 30 20H28.75Z" fill="black"/>
</svg>
