<svg width="40" height="40" viewBox="0 0 40 40" fill="none" xmlns="http://www.w3.org/2000/svg">
<path d="M20.0002 12.9285C18.2249 12.9285 16.7855 14.3666 16.7855 16.142C16.7855 17.9173 18.2249 19.3567 20.0002 19.3567C21.7755 19.3567 23.2148 17.9173 23.2148 16.142C23.2148 14.3666 21.7755 12.9285 20.0002 12.9285ZM12.9286 13.5707C12.7143 13.5707 12.2852 13.6998 12.2852 14.2141V20.6423C12.2852 20.7494 12.3171 21.0285 12.4457 21.2857C12.5743 21.5429 14.5355 23.75 15.4998 24.8215V27.0717H18.3922V22.7319C18.3922 22.4271 18.2478 22.1227 18.0957 21.9549L14.1744 18.0323C13.986 17.8441 13.6806 17.8441 13.4923 18.0323L13.238 18.2867C13.0497 18.475 13.0497 18.7804 13.238 18.9687L15.2842 21.015L15.1705 21.1287L13.1243 19.0824C12.8732 18.8314 12.8732 18.424 13.1243 18.173L13.3786 17.9198C13.5192 17.7792 13.7083 17.7166 13.8919 17.7335V14.2141C13.8919 13.9998 13.764 13.5707 13.2497 13.5707H12.9286ZM26.7506 13.5707C26.2363 13.5707 26.1072 13.9998 26.1072 14.2141V17.7335C26.2908 17.7166 26.4811 17.7792 26.6217 17.9198L26.8749 18.173C27.1259 18.424 27.1259 18.8314 26.8749 19.0824L24.8298 21.1287L24.7161 21.015L26.7624 18.9687C26.9506 18.7804 26.9506 18.475 26.7624 18.2867L26.508 18.0323C26.3197 17.8441 26.0143 17.8441 25.826 18.0323L21.9034 21.9549C21.7514 22.1227 21.6069 22.4271 21.6069 22.7319V27.0717H24.5005V24.8215C25.4649 23.75 27.426 21.5429 27.5546 21.2857C27.6832 21.0285 27.7152 20.7494 27.7152 20.6423V14.2141C27.7152 13.6998 27.2861 13.5707 27.0718 13.5707H26.7506Z" fill="black"/>
</svg>
