<svg width="40" height="40" viewBox="0 0 40 40" fill="none" xmlns="http://www.w3.org/2000/svg">
<path d="M15.3691 10C13.5088 10 12 11.493 12 13.334V16.8242H11.9961V18.1289H12V26.666C12 28.5069 13.5088 30 15.3691 30H24.6309C26.4912 30 28 28.5069 28 26.666V13.334C28 11.493 26.4912 10 24.6309 10H15.3691ZM15.3691 10.5547H24.6309C26.1812 10.5547 27.4395 11.7999 27.4395 13.334V26.666C27.4395 28.2001 26.1812 29.4453 24.6309 29.4453H15.3691C13.8189 29.4453 12.5605 28.2001 12.5605 26.666V18.1289H12.5625V16.8242H12.5605V13.334C12.5605 11.7999 13.8189 10.5547 15.3691 10.5547ZM16.2109 12.5C15.0482 12.5 14.1055 13.4334 14.1055 14.584C14.1055 15.7346 15.0482 16.666 16.2109 16.666C17.3736 16.666 18.3164 15.7346 18.3164 14.584C18.3164 13.4334 17.3736 12.5 16.2109 12.5ZM23.7891 12.5C22.6264 12.5 21.6836 13.4334 21.6836 14.584C21.6836 15.7346 22.6264 16.666 23.7891 16.666C24.9518 16.666 25.8945 15.7346 25.8945 14.584C25.8945 13.4334 24.9518 12.5 23.7891 12.5ZM16.2109 13.0547C16.5297 13.0547 16.8263 13.1506 17.0723 13.3145L14.9297 15.4355C14.7641 15.1921 14.666 14.8995 14.666 14.584C14.666 13.7402 15.3583 13.0547 16.2109 13.0547ZM23.7891 13.0547C24.1079 13.0547 24.4044 13.1506 24.6504 13.3145L22.5078 15.4355C22.3422 15.1921 22.2461 14.8995 22.2461 14.584C22.2461 13.7402 22.9364 13.0547 23.7891 13.0547ZM16.2109 17.916C15.0482 17.916 14.1055 18.8494 14.1055 20C14.1055 21.1506 15.0482 22.084 16.2109 22.084C17.3736 22.084 18.3164 21.1506 18.3164 20C18.3164 18.8494 17.3736 17.916 16.2109 17.916ZM23.7891 17.916C22.6264 17.916 21.6836 18.8494 21.6836 20C21.6836 21.1506 22.6264 22.084 23.7891 22.084C24.9518 22.084 25.8945 21.1506 25.8945 20C25.8945 18.8494 24.9518 17.916 23.7891 17.916ZM16.2109 18.4727C16.5297 18.4727 16.8263 18.5685 17.0723 18.7324L14.9297 20.8516C14.7641 20.6082 14.666 20.3155 14.666 20C14.666 19.1562 15.3583 18.4727 16.2109 18.4727ZM23.7891 18.4727C24.1079 18.4727 24.4044 18.5685 24.6504 18.7324L22.5078 20.8516C22.3422 20.6082 22.2461 20.3155 22.2461 20C22.2461 19.1562 22.9364 18.4727 23.7891 18.4727ZM16.2109 23.334C15.0482 23.334 14.1055 24.2654 14.1055 25.416C14.1055 26.5666 15.0482 27.5 16.2109 27.5C17.3736 27.5 18.3164 26.5666 18.3164 25.416C18.3164 24.2654 17.3736 23.334 16.2109 23.334ZM23.7891 23.334C22.6264 23.334 21.6836 24.2654 21.6836 25.416C21.6836 26.5666 22.6264 27.5 23.7891 27.5C24.9518 27.5 25.8945 26.5666 25.8945 25.416C25.8945 24.2654 24.9518 23.334 23.7891 23.334ZM16.2109 23.8887C16.5297 23.8887 16.8263 23.9845 17.0723 24.1484L14.9297 26.2695C14.7641 26.0261 14.666 25.7315 14.666 25.416C14.666 24.5722 15.3583 23.8887 16.2109 23.8887ZM23.7891 23.8887C24.1079 23.8887 24.4044 23.9845 24.6504 24.1484L22.5078 26.2695C22.3422 26.0261 22.2461 25.7315 22.2461 25.416C22.2461 24.5722 22.9364 23.8887 23.7891 23.8887Z" fill="black"/>
</svg>
