<?xml version="1.0" encoding="utf-8"?>
<!-- Generator: Adobe Illustrator 26.2.1, SVG Export Plug-In . SVG Version: 6.00 Build 0)  -->
<svg version="1.1" id="Capa_1" xmlns="http://www.w3.org/2000/svg" xmlns:xlink="http://www.w3.org/1999/xlink" x="0px" y="0px"
	 viewBox="0 0 24 24" style="enable-background:new 0 0 24 24;" xml:space="preserve">
<style type="text/css">
	.st0{fill:none;}
	.st1{fill:#D6371D;}
</style>
<rect y="0" class="st0" width="24" height="24"/>
<path d="M22,9v9c0,1.1-0.9,2-2,2H4c-1.1,0-2-0.9-2-2L2,6c0-1.1,0.9-2,2-2h10.1C14,4.3,14,4.7,14,5s0,0.7,0.1,1H4l8,5l3.7-2.3
	c0.5,0.4,1,0.8,1.6,1L12,13L4,8v10h16V9.9C20.7,9.8,21.4,9.4,22,9z"/>
<circle class="st1" cx="19" cy="5" r="3"/>
</svg>
