<svg width="56" height="56" viewBox="0 0 56 56" fill="none" xmlns="http://www.w3.org/2000/svg">
<rect width="56" height="56" fill="white"/>
<path d="M30.8724 10.6841C32.5498 9.02135 32.5616 6.3136 30.8988 4.63623C29.236 2.95886 26.5282 2.94704 24.8509 4.60984C23.1735 6.27264 23.1617 8.98038 24.8245 10.6578C26.4873 12.3351 29.195 12.3469 30.8724 10.6841Z" fill="#00AA67"/>
<path d="M16.12 15.9972C17.7973 14.3344 17.8091 11.6266 16.1463 9.94925C14.4835 8.27188 11.7758 8.26006 10.0984 9.92286C8.42106 11.5857 8.40924 14.2934 10.072 15.9708C11.7348 17.6482 14.4426 17.66 16.12 15.9972Z" fill="#F06D24"/>
<path d="M10.6195 30.9378C12.2968 29.275 12.3087 26.5672 10.6459 24.8899C8.98306 23.2125 6.27531 23.2007 4.59794 24.8635C2.92057 26.5263 2.90876 29.234 4.57155 30.9114C6.23435 32.5888 8.94209 32.6006 10.6195 30.9378Z" fill="#020202"/>
<path fill-rule="evenodd" clip-rule="evenodd" d="M40.8088 15.0235C39.2287 12.6536 37.1252 10.6785 34.6607 9.25043L32.7962 12.468C34.7678 13.6105 36.4506 15.1906 37.7147 17.0865C38.9789 18.9824 39.7905 21.1434 40.0871 23.4027C40.3836 25.662 40.1571 27.9592 39.4251 30.1171C38.693 32.275 37.475 34.2359 35.865 35.8484C34.255 37.461 32.296 38.6821 30.1393 39.4175C27.9825 40.1529 25.6857 40.383 23.4259 40.09C21.1661 39.797 19.0039 38.9888 17.106 37.7276C15.2081 36.4665 13.6253 34.7862 12.4798 32.8163L9.26514 34.6858C10.697 37.1481 12.6755 39.2485 15.0479 40.8249C17.4202 42.4013 20.123 43.4117 22.9477 43.7779C25.7724 44.1441 28.6435 43.8565 31.3395 42.9373C34.0354 42.018 36.4841 40.4916 38.4966 38.476C40.5092 36.4603 42.0317 34.0092 42.9467 31.3118C43.8618 28.6144 44.1449 25.7429 43.7742 22.9187C43.4035 20.0946 42.389 17.3934 40.8088 15.0235Z" fill="#00AA67"/>
<path fill-rule="evenodd" clip-rule="evenodd" d="M25.3386 36.4948C31.5 36.4948 36.4949 31.5 36.4949 25.3385C36.4949 19.1771 31.5 14.1823 25.3386 14.1823C19.1772 14.1823 14.1824 19.1771 14.1824 25.3385C14.1824 31.5 19.1772 36.4948 25.3386 36.4948ZM25.3386 32.776C29.4462 32.776 32.7761 29.4461 32.7761 25.3385C32.7761 21.2309 29.4462 17.901 25.3386 17.901C21.231 17.901 17.9011 21.2309 17.9011 25.3385C17.9011 29.4461 21.231 32.776 25.3386 32.776Z" fill="#F06D24"/>
<path d="M56 56V0L0 56H56Z" fill="#F06D24" fill-opacity="0.65"/>
<path d="M17.8783 48.5899L20.1113 36.7865H23.5179L19.8379 53.375H16.3971L13.6969 42.278L10.9967 53.375H7.55599L3.87598 36.7865H7.28255L9.52702 48.5671L12.2614 36.7865H15.1553L17.8783 48.5899Z" fill="white"/>
<path d="M36.5221 46.596H29.9596V53.375H26.5417V36.7865H37.3425V39.555H29.9596V43.8389H36.5221V46.596Z" fill="white"/>
<path d="M47.6693 49.957H41.6764L40.5371 53.375H36.9027L43.0778 36.7865H46.2451L52.4544 53.375H48.82L47.6693 49.957ZM42.5993 47.1885H46.7464L44.6615 40.9792L42.5993 47.1885Z" fill="white"/>
<path fill-rule="evenodd" clip-rule="evenodd" d="M13.7018 42.2982L13.6969 42.278L13.6889 42.3111L10.16 45.84L12.2614 36.7865H15.1553L15.916 40.084L13.7018 42.2982ZM9.1919 46.8081L6.66071 49.3393L3.87598 36.7865H7.28255L9.1919 46.8081Z" fill="#F06D24"/>
</svg>
