<svg width="24" height="24" viewBox="0 0 24 24" fill="none" xmlns="http://www.w3.org/2000/svg">
<path fill-rule="evenodd" clip-rule="evenodd" d="M21 3H3V5H21V3ZM6 7H13C12.0403 7.54026 11.4742 8.07402 11 9H6V7ZM16 7C13.24 7 11 9.24 11 12C11 14.76 13.24 17 16 17C18.76 17 21 14.76 21 12C21 9.24 18.76 7 16 7ZM16 8.5C16.83 8.5 17.5 9.17 17.5 10C17.5 10.83 16.83 11.5 16 11.5C15.17 11.5 14.5 10.83 14.5 10C14.5 9.17 15.17 8.5 16 8.5ZM16 15.6C14.75 15.6 13.645 14.96 13 13.99C13.015 12.995 15 12.45 16 12.45C16.995 12.45 18.985 12.995 19 13.99C18.355 14.96 17.25 15.6 16 15.6ZM13 17H6V15H11C11.4742 15.926 12.0403 16.4597 13 17ZM6 11H10.3263C10.1988 11.744 10.1766 12.1646 10.3263 13H6V11ZM5 11H3V13H5V11ZM3 7H5V9H3V7ZM5 15H3V17H5V15ZM3 19H21V21H3V19Z" fill="#333333"/>
</svg>
