<svg width="40" height="40" viewBox="0 0 40 40" fill="none" xmlns="http://www.w3.org/2000/svg">
<path d="M31.226 20.7249C31.2119 20.9401 31.1916 21.1562 31.1649 21.3732C31.1101 21.8187 31.0301 22.2543 30.9267 22.6789L30.928 22.6792C30.3734 24.9492 29.1299 26.9492 27.4316 28.4448C26.9344 28.882 26.3994 29.2752 25.833 29.6192L25.8336 29.6201C25.3324 29.9247 24.8056 30.1912 24.257 30.4156L24.2568 30.415C24.0073 30.5173 23.7537 30.6107 23.4964 30.6951C22.3959 31.0546 21.2206 31.2491 20 31.2491C19.7631 31.2491 19.5279 31.2417 19.2946 31.2273C19.0731 31.2131 18.8504 31.1924 18.6268 31.1649C18.1813 31.1101 17.7457 31.0301 17.3211 30.9267L17.3208 30.928C15.1638 30.401 13.2507 29.2521 11.7824 27.682L14.6433 24.821H8.2153V31.2491L10.6453 28.8191C10.7185 28.8968 10.7926 28.9735 10.8677 29.0494C11.3412 29.5272 11.8523 29.9677 12.3955 30.3669L12.3947 30.368C13.1797 30.9449 14.0352 31.4361 14.9493 31.826C16.274 32.3925 17.7132 32.7429 19.2225 32.8329C19.4634 32.8478 19.7033 32.8558 19.9421 32.8572L19.9421 32.8559C19.9614 32.856 19.9807 32.8561 20 32.8561C20.6643 32.8561 21.3168 32.8057 21.954 32.7085L21.9542 32.71C22.4918 32.6276 23.02 32.5115 23.5361 32.3636C25.4033 31.8306 27.097 30.886 28.5126 29.6341C28.6962 29.4721 28.8752 29.3047 29.0494 29.1323L29.0491 29.1319C29.5269 28.6584 29.9677 28.1477 30.3669 27.6045L30.368 27.6053C30.9533 26.809 31.4503 25.94 31.8428 25.011C32.397 23.7029 32.7408 22.284 32.8317 20.7968C32.8473 20.5494 32.8557 20.3031 32.8572 20.0579L32.8559 20.0579C32.856 20.0386 32.856 20.0193 32.856 20H31.249C31.249 20.2435 31.2413 20.4853 31.226 20.7249Z" fill="#333333"/>
<path d="M7.24011 18.4307C7.17767 18.9384 7.14573 19.4428 7.14286 19.9421L8.74984 19.9513C8.75235 19.5144 8.7803 19.0724 8.8351 18.6268C8.8899 18.1813 8.96989 17.7457 9.07333 17.3211L7.512 16.9407C7.3938 17.4258 7.30256 17.923 7.24011 18.4307Z" fill="#333333"/>
<path d="M8.14235 15.0242C8.53716 14.082 9.03934 13.2011 9.63197 12.3947L10.9269 13.3464C10.4085 14.0517 9.96952 14.8219 9.62451 15.6453L8.14235 15.0242Z" fill="#333333"/>
<path d="M10.9506 10.8677C11.6689 10.1568 12.4689 9.53206 13.3327 9.00737L14.167 10.3808C13.4106 10.8403 12.71 11.3874 12.0809 12.0099L10.9506 10.8677Z" fill="#333333"/>
<path d="M15.1337 8.09808C16.0596 7.71851 17.036 7.44475 18.0458 7.29003L18.2892 8.8785C17.4067 9.01371 16.5532 9.25297 15.7432 9.585L15.1337 8.09808Z" fill="#333333"/>
<path d="M20.0579 7.14286C20.5572 7.14573 21.0617 7.17767 21.5694 7.24011C22.0771 7.30256 22.5742 7.3938 23.0593 7.512L22.6789 9.07333C22.2543 8.96989 21.8187 8.8899 21.3732 8.8351C20.9276 8.7803 20.4856 8.75235 20.0487 8.74984L20.0579 7.14286Z" fill="#333333"/>
<path d="M24.9758 8.14235C25.918 8.53716 26.7989 9.03934 27.6053 9.63197L26.6536 10.9269C25.9483 10.4085 25.1782 9.96952 24.3547 9.62451L24.9758 8.14235Z" fill="#333333"/>
<path d="M29.1323 10.9506C29.8432 11.6689 30.4679 12.4689 30.9926 13.3327L29.6192 14.167C29.1597 13.4106 28.6126 12.71 27.9901 12.0809L29.1323 10.9506Z" fill="#333333"/>
<path d="M31.9019 15.1337C32.2815 16.0596 32.5553 17.036 32.71 18.0458L31.1215 18.2892C30.9863 17.4067 30.747 16.5532 30.415 15.7432L31.9019 15.1337Z" fill="#333333"/>
</svg>
