<svg width="48" height="48" viewBox="0 0 48 48" fill="none" xmlns="http://www.w3.org/2000/svg">
<path d="M37.4712 24.8699C37.4543 25.1281 37.4299 25.3874 37.3979 25.6478C37.3321 26.1825 37.2361 26.7052 37.112 27.2146L37.1136 27.215C36.4481 29.9391 34.9558 32.339 32.9179 34.1338C32.3213 34.6584 31.6792 35.1302 30.9996 35.543L31.0003 35.5441C30.3989 35.9096 29.7667 36.2294 29.1084 36.4987L29.1081 36.498C28.8088 36.6207 28.5044 36.7329 28.1957 36.8341C26.875 37.2655 25.4647 37.4988 24 37.4988C23.7157 37.4988 23.4335 37.4901 23.1536 37.4727C22.8877 37.4558 22.6205 37.4309 22.3522 37.3979C21.8175 37.3321 21.2948 37.2361 20.7854 37.112L20.785 37.1136C18.1966 36.4812 15.9009 35.1025 14.1388 33.2184L17.572 29.7852H9.85836V37.4988L12.7743 34.5829C12.8621 34.6761 12.9511 34.7682 13.0412 34.8593C13.6094 35.4327 14.2227 35.9613 14.8746 36.4403L14.8736 36.4416C15.8156 37.1339 16.8423 37.7233 17.9391 38.1911C19.5288 38.871 21.2558 39.2915 23.067 39.3995C23.356 39.4173 23.644 39.4269 23.9305 39.4286L23.9305 39.4271C23.9536 39.4272 23.9768 39.4273 24 39.4273C24.7971 39.4273 25.5802 39.3668 26.3447 39.2502L26.345 39.252C26.9902 39.1531 27.624 39.0138 28.2433 38.8363C30.484 38.1967 32.5164 37.0631 34.2152 35.5609C34.4354 35.3665 34.6503 35.1656 34.8593 34.9588L34.8589 34.9583C35.4322 34.3901 35.9612 33.7772 36.4402 33.1253L36.4416 33.1263C37.1439 32.1708 37.7404 31.128 38.2114 30.0132C38.8764 28.4435 39.2889 26.7408 39.3981 24.9562C39.4168 24.6593 39.4269 24.3637 39.4286 24.0695L39.4271 24.0695C39.4272 24.0463 39.4272 24.0232 39.4272 24H37.4988C37.4988 24.2922 37.4895 24.5823 37.4712 24.8699Z" fill="#333333"/>
<path d="M8.68813 22.1168C8.6132 22.726 8.57487 23.3313 8.57143 23.9305L10.4998 23.9416C10.5028 23.4172 10.5364 22.8868 10.6021 22.3522C10.6679 21.8175 10.7639 21.2948 10.888 20.7853L9.0144 20.3288C8.87255 20.911 8.76306 21.5075 8.68813 22.1168Z" fill="#333333"/>
<path d="M9.77082 18.0291C10.2446 16.8984 10.8472 15.8413 11.5584 14.8736L13.1122 16.0156C12.4902 16.8621 11.9634 17.7862 11.5494 18.7743L9.77082 18.0291Z" fill="#333333"/>
<path d="M13.1407 13.0412C14.0027 12.1881 14.9627 11.4385 15.9992 10.8088L17.0004 12.457C16.0927 13.0083 15.252 13.6649 14.4971 14.4119L13.1407 13.0412Z" fill="#333333"/>
<path d="M18.1604 9.71767C19.2716 9.26219 20.4432 8.93368 21.655 8.74802L21.947 10.6542C20.8881 10.8164 19.8638 11.1035 18.8919 11.502L18.1604 9.71767Z" fill="#333333"/>
<path d="M24.0695 8.57141C24.6687 8.57486 25.274 8.61319 25.8832 8.68812C26.4925 8.76305 27.089 8.87254 27.6712 9.01438L27.2146 10.888C26.7052 10.7638 26.1825 10.6679 25.6478 10.6021C25.1132 10.5363 24.5828 10.5028 24.0584 10.4998L24.0695 8.57141Z" fill="#333333"/>
<path d="M29.9709 9.7708C31.1016 10.2446 32.1587 10.8472 33.1264 11.5583L31.9843 13.1122C31.1379 12.4902 30.2138 11.9634 29.2257 11.5494L29.9709 9.7708Z" fill="#333333"/>
<path d="M34.9588 13.1407C35.8119 14.0027 36.5615 14.9627 37.1912 15.9992L35.543 17.0004C34.9916 16.0927 34.3351 15.252 33.5881 14.4971L34.9588 13.1407Z" fill="#333333"/>
<path d="M38.2823 18.1604C38.7378 19.2715 39.0663 20.4432 39.252 21.655L37.3458 21.947C37.1836 20.888 36.8964 19.8638 36.498 18.8919L38.2823 18.1604Z" fill="#333333"/>
</svg>
