<svg width="34" height="38" viewBox="0 0 34 38" fill="none" xmlns="http://www.w3.org/2000/svg">
<path fill-rule="evenodd" clip-rule="evenodd" d="M17.6758 0.371178V4.37118H21.6758V0.371178H17.6758ZM0.476562 0.375084V11.1876H4.47656H11.3125V7.18758V4.37508V0.375084H7.3125H4.47656H0.5H0.476562ZM11.8438 0.375084V4.37508H15.8438V0.375084H11.8438ZM22.1523 0.375084V11.1876H22.1758H26.1523H32.9883V7.18758C33.5154 -0.109905 32.9989 0.375084 26.1523 0.375084H22.1758H22.1523ZM3.34766 3.51962H8.39062V8.00399H8.33984V8.0079H3.67969H3.54297H3.33984V3.52352H3.34766V3.51962ZM3.67969 3.85946V7.66805H8.05078V3.85946H3.67969ZM4.47656 4.37508H7.3125V7.18758H4.47656V4.37508ZM26.1523 4.37508H28.9883V7.18758H26.1523V4.37508ZM11.8555 6.17977V10.1798H15.8555V6.17977H11.8555ZM0.472656 11.6993V15.6993H4.47266V11.6993H0.472656ZM11.8477 11.6993V15.6993H15.8477V11.6993H11.8477ZM17.6641 11.6993V15.6993H21.6641V11.6993H17.6641ZM23.2031 11.6993V15.6993H27.2031V11.6993H23.2031ZM4.60547 18.1134V22.1134H8.60547V18.1134H4.60547ZM8.60547 22.1134V26.1134H12.6055V22.1134H8.60547ZM12.6055 22.1134H16.6055V18.1134H12.6055V22.1134ZM4.60547 22.1134H0.605469V26.1134H4.60547V22.1134ZM28.6914 22.0665V26.0665H32.6914V22.0665H28.6914ZM17.0273 22.1134V26.1134H21.0273V22.1134H17.0273ZM0.675781 26.9806V37.7931H4.67578H11.5117V33.7931V30.9806V26.9806H7.51172H4.67578H0.699219H0.675781ZM12.043 26.9806V30.9806H16.043V26.9806H12.043ZM28.7344 27.2188V31.2188H32.7344V27.2188H28.7344ZM23.4062 27.2891V31.2891H27.4062V27.2891H23.4062ZM3.54688 30.1251H8.58984V34.6095H8.53906V34.6134H3.87891H3.74219H3.53906V30.129H3.54688V30.1251ZM3.87891 30.4649V34.2735H8.25V30.4649H3.87891ZM4.67578 30.9806H7.51172V33.7931H4.67578V30.9806ZM12.043 32.2071V36.2071H16.043V32.2071H12.043ZM17.4844 32.297V36.297H21.4844V32.297H17.4844ZM23.3984 32.3829V36.3829H27.3984V32.3829H23.3984Z" fill="#333333"/>
</svg>
