<svg width="24" height="24" viewBox="0 0 24 24" fill="none" xmlns="http://www.w3.org/2000/svg">
<path d="M5.89279 6.42854C5.89279 6.21425 5.76421 5.78568 5.24993 5.78568H4.9285C4.71421 5.78568 4.28564 5.91425 4.28564 6.42854V12.8571C4.28564 12.9643 4.31779 13.2428 4.44636 13.5C4.57493 13.7571 6.53564 15.9643 7.49993 17.0357V19.2857H10.3928V14.9464C10.3928 14.6416 10.2483 14.3368 10.0963 14.169L6.17467 10.2474C5.98638 10.0591 5.68111 10.0591 5.49282 10.2474L5.23859 10.5017C5.05031 10.6899 5.05031 10.9952 5.23859 11.1835L7.28403 13.2289L7.17039 13.3426L5.12495 11.2971C4.8739 11.0461 4.8739 10.6391 5.12495 10.388L5.37918 10.1338C5.51974 9.99323 5.70919 9.93136 5.89279 9.9482V6.42854Z" fill="#333333"/>
<path d="M18.1071 6.42854C18.1071 6.21425 18.2356 5.78568 18.7499 5.78568H19.0714C19.2856 5.78568 19.7142 5.91425 19.7142 6.42854V12.8571C19.7142 12.9643 19.6821 13.2428 19.5535 13.5C19.4249 13.7571 17.4642 15.9643 16.4999 17.0357V19.2857H13.6071V14.9464C13.6071 14.6416 13.7516 14.3368 13.9036 14.169L17.8252 10.2474C18.0135 10.0591 18.3188 10.0591 18.507 10.2474L18.7613 10.5017C18.9496 10.6899 18.9496 10.9952 18.7613 11.1835L16.7158 13.2289L16.8295 13.3426L18.8749 11.2971C19.126 11.0461 19.126 10.6391 18.8749 10.388L18.6207 10.1338C18.4801 9.99323 18.2907 9.93136 18.1071 9.9482V6.42854Z" fill="#333333"/>
<path d="M15.2142 8.35711C15.2142 10.1323 13.7751 11.5714 11.9999 11.5714C10.2247 11.5714 8.78564 10.1323 8.78564 8.35711C8.78564 6.58191 10.2247 5.14282 11.9999 5.14282C13.7751 5.14282 15.2142 6.58191 15.2142 8.35711Z" fill="#333333"/>
</svg>
