<svg width="24" height="24" viewBox="0 0 24 24" fill="none" xmlns="http://www.w3.org/2000/svg">
<path fill-rule="evenodd" clip-rule="evenodd" d="M2.82997 10L6.99997 14.17L17.59 3.59L19 5L6.99997 17L1.40997 11.41L2.82997 10ZM10.8528 20.7862C10.8868 20.7862 10.9179 20.7721 10.9462 20.7438L11.1585 20.5318C11.1868 20.5036 11.201 20.4725 11.201 20.4385C11.201 20.3989 11.1869 20.365 11.1586 20.3367L8.38594 17.56C8.35485 17.5288 8.32234 17.5133 8.28839 17.5132C8.25445 17.5132 8.22192 17.5287 8.19078 17.5598L7.9785 17.7718C7.95019 17.8001 7.93744 17.8326 7.94024 17.8694C7.94022 17.9033 7.95434 17.9344 7.9826 17.9627L10.7553 20.7394C10.7836 20.7677 10.8161 20.7833 10.8528 20.7862ZM11.9503 19.6903C11.9871 19.6875 12.0196 19.672 12.0479 19.6437L12.2432 19.4487C12.2715 19.4204 12.2857 19.3893 12.2857 19.3554C12.2857 19.3158 12.2716 19.2818 12.2433 19.2535L11.069 18.0775C10.8683 17.8765 10.7652 17.6657 10.7597 17.4451C10.7514 17.2216 10.8378 17.0195 11.019 16.8386C11.2029 16.6548 11.401 16.5701 11.6131 16.5844C11.8252 16.5987 12.033 16.7078 12.2365 16.9116L13.4109 18.0876C13.4392 18.1159 13.4717 18.1315 13.5085 18.1344C13.5452 18.1316 13.5778 18.116 13.6061 18.0878L13.8014 17.8927C13.8297 17.8645 13.8438 17.8334 13.8439 17.7994C13.8439 17.7598 13.8298 17.7259 13.8015 17.6976L12.6017 16.496C12.3162 16.2102 12.0123 16.0558 11.6899 16.0329C11.3646 16.0073 11.0661 16.1301 10.7944 16.4014C10.6274 16.5682 10.5156 16.7364 10.4589 16.906C10.405 17.0729 10.3879 17.2511 10.4076 17.4406L10.221 17.2538C10.1899 17.2226 10.1574 17.2071 10.1235 17.207C10.0896 17.207 10.057 17.2225 10.0259 17.2536L9.84331 17.4359C9.81501 17.4642 9.80084 17.4981 9.80081 17.5377C9.80079 17.5717 9.81491 17.6028 9.84317 17.6311L11.8527 19.6435C11.881 19.6719 11.9135 19.6874 11.9503 19.6903ZM14.6607 17.696C14.6947 17.696 14.7229 17.6847 14.7456 17.6621L14.8984 17.5095C14.9296 17.4784 14.9451 17.4459 14.9452 17.412C14.9509 17.378 14.948 17.3497 14.9367 17.3271L12.9123 12.3872C12.8982 12.3561 12.8855 12.3349 12.8742 12.3235C12.8516 12.3009 12.8233 12.2896 12.7893 12.2895C12.7554 12.2895 12.7271 12.3008 12.7045 12.3234L12.5474 12.4803C12.4993 12.5283 12.4865 12.5891 12.5091 12.6627L14.5377 17.5983C14.5519 17.6295 14.5646 17.6507 14.5759 17.662C14.5985 17.6846 14.6268 17.696 14.6607 17.696ZM16.2905 14.9662C16.6356 14.9721 16.9638 14.8196 17.2751 14.5087C17.5865 14.1978 17.738 13.8713 17.7298 13.529C17.7244 13.1839 17.5818 12.86 17.302 12.5571C17.2455 12.4892 17.1875 12.4255 17.1282 12.3661C17.0688 12.3067 17.0052 12.2486 16.9374 12.192C16.635 11.9118 16.3098 11.7701 15.9619 11.7671C15.6168 11.7611 15.2915 11.9108 14.9858 12.2161C14.6801 12.5213 14.5285 12.8479 14.5311 13.1958C14.5365 13.5409 14.6791 13.8648 14.9589 14.1677L15.137 14.3545L15.3235 14.5328C15.6259 14.813 15.9483 14.9575 16.2905 14.9662ZM17.2164 13.5923C17.2247 13.8101 17.1383 14.0094 16.9572 14.1903C16.776 14.3712 16.5751 14.4587 16.3545 14.4529C16.1339 14.4415 15.912 14.3324 15.6887 14.1258L15.5233 13.9687L15.3665 13.8031C15.1601 13.5795 15.0528 13.3588 15.0445 13.141C15.0362 12.9176 15.1226 12.7154 15.3037 12.5345C15.4849 12.3536 15.6858 12.2689 15.9064 12.2804C16.127 12.2862 16.3489 12.3924 16.5722 12.599C16.6033 12.6245 16.6584 12.6769 16.7376 12.7561C16.8167 12.8354 16.869 12.8906 16.8944 12.9217C17.1008 13.1453 17.2081 13.3688 17.2164 13.5923ZM18.7499 12.5189C19.0695 12.5446 19.3637 12.4231 19.6326 12.1546C19.8025 11.9851 19.9157 11.8183 19.9724 11.6543C20.0263 11.4874 20.0391 11.3078 20.011 11.1155L20.2017 11.3065C20.23 11.3348 20.2625 11.3504 20.2993 11.3533C20.3361 11.3505 20.3686 11.3349 20.3969 11.3067L20.5795 11.1244C20.6078 11.0961 20.6219 11.065 20.622 11.0311C20.622 10.9915 20.6079 10.9575 20.5796 10.9292L18.57 8.91674C18.5418 8.88844 18.5093 8.87569 18.4725 8.87849C18.4357 8.87563 18.4032 8.88834 18.3749 8.9166L18.1796 9.11162C18.1513 9.13989 18.1371 9.17382 18.1371 9.21342C18.1371 9.24736 18.1512 9.27848 18.1794 9.30679L19.3538 10.4828C19.5545 10.6838 19.659 10.896 19.6673 11.1195C19.6756 11.3373 19.5892 11.5366 19.4081 11.7175C19.0345 12.0906 18.6328 12.062 18.2032 11.6318L17.0289 10.4557C17.0006 10.4274 16.9681 10.4147 16.9313 10.4175C16.8945 10.4146 16.862 10.4273 16.8337 10.4556L16.6384 10.6506C16.6101 10.6789 16.5959 10.7128 16.5959 10.7524C16.5959 10.7863 16.61 10.8175 16.6383 10.8458L17.8338 12.043C18.1221 12.3317 18.4275 12.4904 18.7499 12.5189ZM20.7614 9.45879C21.2561 9.95412 21.7227 9.98274 22.1615 9.54465L22.4502 9.25636C22.4785 9.22809 22.4926 9.19699 22.4927 9.16305C22.4899 9.12628 22.4743 9.09374 22.4461 9.06543L22.3062 8.92533C22.2779 8.89702 22.2468 8.88286 22.2128 8.88283C22.1761 8.87998 22.1435 8.89268 22.1152 8.92095L21.8562 9.17956C21.743 9.29262 21.6256 9.33637 21.504 9.31083C21.3852 9.28246 21.2538 9.1961 21.1096 9.05175L20.0031 7.94362L20.5296 7.41791C20.5579 7.38965 20.572 7.35855 20.5721 7.3246C20.5749 7.28784 20.5622 7.2553 20.5339 7.227L20.3983 7.09113C20.37 7.06283 20.3375 7.05008 20.3007 7.05288C20.264 7.05003 20.2314 7.06273 20.2031 7.09099L19.6767 7.6167L18.9686 6.90767C18.9404 6.87937 18.9079 6.86662 18.8711 6.86942C18.8343 6.86657 18.8018 6.87927 18.7735 6.90753L18.5867 7.09408C18.5584 7.12234 18.5456 7.15486 18.5484 7.19163C18.5484 7.22557 18.5625 7.25669 18.5908 7.285L19.2988 7.99403L18.9634 8.32896C18.9351 8.35722 18.9223 8.38974 18.9251 8.42651C18.9251 8.46045 18.9392 8.49157 18.9675 8.51988L19.1031 8.65574C19.1314 8.68404 19.1625 8.69821 19.1965 8.69823C19.2304 8.69826 19.2615 8.68414 19.2898 8.65587L19.6252 8.32095L20.7614 9.45879Z" fill="white"/>
</svg>
