<svg width="24" height="24" viewBox="0 0 24 24" fill="none" xmlns="http://www.w3.org/2000/svg">
<path d="M19.4676 13.5374C19.506 13.2303 19.5348 12.9232 19.5348 12.5969C19.5348 12.2706 19.506 11.9635 19.4676 11.6564L21.4925 10.0729C21.6749 9.92894 21.7229 9.66983 21.6077 9.4587L19.6883 6.13818C19.602 5.98463 19.4388 5.89826 19.2661 5.89826C19.2085 5.89826 19.1509 5.90785 19.1029 5.92705L16.7133 6.88673C16.2143 6.50286 15.6768 6.18616 15.0914 5.94624L14.7267 3.40307C14.698 3.17274 14.4964 3 14.2565 3H10.4177C10.1778 3 9.97629 3.17274 9.9475 3.40307L9.58282 5.94624C8.99741 6.18616 8.45998 6.51246 7.96094 6.88673L5.57132 5.92705C5.51374 5.90785 5.45616 5.89826 5.39858 5.89826C5.23543 5.89826 5.07228 5.98463 4.98591 6.13818L3.06654 9.4587C2.94178 9.66983 2.99936 9.92894 3.1817 10.0729L5.20664 11.6564C5.16825 11.9635 5.13946 12.2802 5.13946 12.5969C5.13946 12.9136 5.16825 13.2303 5.20664 13.5374L3.1817 15.1209C2.99936 15.2648 2.95137 15.5239 3.06654 15.7351L4.98591 19.0556C5.07228 19.2091 5.23543 19.2955 5.40817 19.2955C5.46576 19.2955 5.52334 19.2859 5.57132 19.2667L7.96094 18.307C8.45998 18.6909 8.99741 19.0076 9.58282 19.2475L9.9475 21.7907C9.97629 22.021 10.1778 22.1938 10.4177 22.1938H14.2565C14.4964 22.1938 14.698 22.021 14.7267 21.7907L15.0914 19.2475C15.6768 19.0076 16.2143 18.6813 16.7133 18.307L19.1029 19.2667C19.1605 19.2859 19.2181 19.2955 19.2757 19.2955C19.4388 19.2955 19.602 19.2091 19.6883 19.0556L21.6077 15.7351C21.7229 15.5239 21.6749 15.2648 21.4925 15.1209L19.4676 13.5374V13.5374ZM17.5674 11.8963C17.6058 12.1938 17.6154 12.3953 17.6154 12.5969C17.6154 12.7984 17.5962 13.0095 17.5674 13.2974L17.4331 14.3819L18.2872 15.0537L19.3236 15.8598L18.6519 17.021L17.4331 16.5316L16.435 16.1285L15.5713 16.7811C15.1586 17.0882 14.7651 17.3185 14.3717 17.4817L13.3544 17.8944L13.2008 18.9788L13.0089 20.2744H11.6653L11.483 18.9788L11.3294 17.8944L10.3122 17.4817C9.89951 17.3089 9.51564 17.0882 9.13176 16.8003L8.25845 16.1285L7.24118 16.5412L6.02237 17.0306L5.35059 15.8694L6.38706 15.0633L7.24118 14.3915L7.10682 13.307C7.07803 13.0095 7.05884 12.7888 7.05884 12.5969C7.05884 12.4049 7.07803 12.1842 7.10682 11.8963L7.24118 10.8119L6.38706 10.1401L5.35059 9.33394L6.02237 8.17272L7.24118 8.66216L8.23925 9.06523L9.10297 8.41264C9.51564 8.10554 9.90911 7.87521 10.3026 7.71207L11.3199 7.2994L11.4734 6.21495L11.6653 4.91938H12.9993L13.1816 6.21495L13.3352 7.2994L14.3525 7.71207C14.7651 7.88481 15.149 8.10554 15.5329 8.39344L16.4062 9.06523L17.4235 8.65256L18.6423 8.16312L19.314 9.32434L18.2872 10.1401L17.4331 10.8119L17.5674 11.8963ZM12.3371 8.75813C10.2162 8.75813 8.49837 10.476 8.49837 12.5969C8.49837 14.7178 10.2162 16.4356 12.3371 16.4356C14.458 16.4356 16.1759 14.7178 16.1759 12.5969C16.1759 10.476 14.458 8.75813 12.3371 8.75813ZM12.3371 14.5163C11.2815 14.5163 10.4177 13.6525 10.4177 12.5969C10.4177 11.5412 11.2815 10.6775 12.3371 10.6775C13.3928 10.6775 14.2565 11.5412 14.2565 12.5969C14.2565 13.6525 13.3928 14.5163 12.3371 14.5163Z" fill="#333333"/>
</svg>
