<svg width="162" height="162" viewBox="0 0 162 162" fill="none" xmlns="http://www.w3.org/2000/svg">
<g clip-path="url(#clip0)">
<path fill-rule="evenodd" clip-rule="evenodd" d="M25 36.6933C31.703 36.6933 37 31.314 37 24.8466C37 18.3792 31.703 13 25 13C18.297 13 13 18.3792 13 24.8466C13 31.314 18.297 36.6933 25 36.6933ZM50 24.8466C50 36.3345 42.1556 46.0014 31.5 48.8451V101.319C31.5 102.7 32.6193 103.819 34 103.819H65.5V88.5093C65.5 79.9489 72.4396 73.0093 81 73.0093H112.864C115.739 62.4393 125.456 54.6626 137 54.6626C150.807 54.6626 162 65.7868 162 79.5092C162 93.2316 150.807 104.356 137 104.356C125.456 104.356 115.739 96.5792 112.864 86.0093H81C79.6193 86.0093 78.5 87.1286 78.5 88.5093V129.147C78.5 130.528 79.6193 131.647 81 131.647H112.616C115.136 120.575 125.097 112.307 137 112.307C150.807 112.307 162 123.431 162 137.153C162 150.876 150.807 162 137 162C125.821 162 116.355 154.707 113.157 144.647H81C72.4396 144.647 65.5 137.708 65.5 129.147V116.819H34C25.4396 116.819 18.5 109.879 18.5 101.319V48.8451C7.84441 46.0014 0 36.3345 0 24.8466C0 11.1242 11.1929 0 25 0C38.8071 0 50 11.1242 50 24.8466ZM137 149C143.703 149 149 143.621 149 137.153C149 130.686 143.703 125.307 137 125.307C130.297 125.307 125 130.686 125 137.153C125 143.621 130.297 149 137 149ZM149 79.5092C149 85.9766 143.703 91.3559 137 91.3559C130.297 91.3559 125 85.9766 125 79.5092C125 73.0418 130.297 67.6626 137 67.6626C143.703 67.6626 149 73.0418 149 79.5092Z" fill="#BDBDBD"/>
</g>
<defs>
<clipPath id="clip0">
<rect width="162" height="162" fill="white"/>
</clipPath>
</defs>
</svg>
