<svg width="36" height="36" viewBox="0 0 36 36" fill="none" xmlns="http://www.w3.org/2000/svg">
<path d="M4.5 18C4.5 21.315 5.865 24.3 8.04 26.46L4.5 30H13.5V21L10.14 24.36C8.52 22.725 7.5 20.49 7.5 18C7.5 14.085 10.005 10.755 13.5 9.525V6.39C8.325 7.725 4.5 12.405 4.5 18ZM16.5 25.5H19.5V22.5H16.5V25.5ZM31.5 6H22.5V15L25.86 11.64C27.48 13.275 28.5 15.51 28.5 18C28.5 21.915 25.995 25.245 22.5 26.475V29.61C27.675 28.275 31.5 23.595 31.5 18C31.5 14.685 30.135 11.7 27.96 9.54L31.5 6ZM16.5 19.5H19.5V10.5H16.5V19.5Z" fill="#27AE60"/>
</svg>
