<svg width="36" height="36" viewBox="0 0 36 36" fill="none" xmlns="http://www.w3.org/2000/svg">
<path fill-rule="evenodd" clip-rule="evenodd" d="M1.5 18H6C6 11.37 11.37 6 18 6C20.355 6 22.545 6.69 24.39 7.86L22.2 10.05C20.955 9.375 19.515 9 18 9C13.035 9 9 13.035 9 18H13.5L7.5 24L1.5 18ZM18 27C22.965 27 27 22.965 27 18H22.5L28.5 12L34.5 18H30C30 24.63 24.63 30 18 30C15.645 30 13.455 29.31 11.61 28.14L13.8 25.95C15.045 26.625 16.485 27 18 27ZM13.7573 15.8787L15.8786 13.7574L17.9999 15.8787L20.1212 13.7574L22.2426 15.8787L20.1212 18L22.2426 20.1213L20.1213 22.2426L17.9999 20.1213L15.8786 22.2426L13.7573 20.1213L15.8786 18L13.7573 15.8787Z" fill="#F18A1F"/>
</svg>
