<svg width="24" height="24" viewBox="0 0 24 24" fill="none" xmlns="http://www.w3.org/2000/svg">
<g clip-path="url(#clip0)">
<path d="M12.0003 4V1L8.00024 5L12.0003 8.99998V5.99998C15.3102 5.99998 18.0003 8.69002 18.0003 12C18.0003 13.01 17.7502 13.97 17.3002 14.8L18.7602 16.26C19.5402 15.03 20.0002 13.57 20.0002 12C20.0002 7.58002 16.4202 4 12.0003 4ZM12.0003 18C8.69024 18 6.00026 15.31 6.00026 12C6.00026 10.99 6.25022 10.03 6.70022 9.20002L5.24024 7.73998C4.46024 8.96998 4.00024 10.43 4.00024 12C4.00024 16.42 7.58024 20 12.0003 20V23L16.0002 19L12.0003 15V18Z" fill="#333333" fill-opacity="0.75"/>
<path d="M21.0004 23.739C22.5131 23.739 23.7395 22.5127 23.7395 20.9999C23.7395 19.4871 22.5131 18.2607 21.0004 18.2607C19.4876 18.2607 18.2612 19.4871 18.2612 20.9999C18.2612 22.5127 19.4876 23.739 21.0004 23.739Z" stroke="#FF0000"/>
</g>
<defs>
<clipPath id="clip0">
<rect width="24" height="24" fill="white"/>
</clipPath>
</defs>
</svg>
