<svg width="24" height="24" viewBox="0 0 24 24" fill="none" xmlns="http://www.w3.org/2000/svg">
<g clip-path="url(#clip0)">
<path fill-rule="evenodd" clip-rule="evenodd" d="M4.00024 12C4.00024 10.5159 4.40384 9.12656 5.10731 7.93563L6.58591 9.41419C6.21052 10.1975 6.00026 11.0745 6.00026 12H9.00026L5.00024 16L1.00024 12H4.00024ZM12.0003 18C12.9257 18 13.8028 17.7897 14.586 17.4143L16.0646 18.8929C14.8737 19.5964 13.4843 20 12.0003 20C10.4302 20 8.97026 19.54 7.74026 18.76L9.20024 17.3C10.0302 17.75 10.9902 18 12.0003 18ZM17.4145 14.586L18.8931 16.0645C19.5966 14.8736 20.0002 13.4841 20.0002 12H23.0002L19.0002 8.00002L15.0003 12H18.0003C18.0003 12.9255 17.7899 13.8026 17.4145 14.586ZM7.9357 5.10716L9.41426 6.58574C10.1976 6.21035 11.0747 5.99998 12.0003 5.99998C13.0102 5.99998 13.9702 6.25 14.8002 6.7L16.2603 5.24002C15.0303 4.46 13.5702 4 12.0003 4C10.5161 4 9.12668 4.40363 7.9357 5.10716ZM5.63619 4.22166L4.22198 5.63586L18.3641 19.778L19.7783 18.3638L5.63619 4.22166Z" fill="#BA4E4E"/>
<path d="M21.0002 24C22.6571 24 24.0002 22.6569 24.0002 21C24.0002 19.3431 22.6571 18 21.0002 18C19.3434 18 18.0002 19.3431 18.0002 21C18.0002 22.6569 19.3434 24 21.0002 24Z" fill="#FF0000"/>
</g>
<defs>
<clipPath id="clip0">
<rect width="24" height="24" fill="white"/>
</clipPath>
</defs>
</svg>
