<svg width="36" height="36" viewBox="0 0 36 36" fill="none" xmlns="http://www.w3.org/2000/svg">
<path fill-rule="evenodd" clip-rule="evenodd" d="M6 18C6 15.7739 6.6054 13.6898 7.66063 11.9034L9.8785 14.1212C9.31546 15.2962 9 16.6117 9 18H13.5L7.5 24L1.5 18H6ZM18 27C19.3883 27 20.7038 26.6845 21.8788 26.1215L24.0966 28.3394C22.3102 29.3946 20.2261 30 18 30C15.645 30 13.455 29.31 11.61 28.14L13.8 25.95C15.045 26.625 16.485 27 18 27ZM26.1214 21.8789L28.3393 24.0968C29.3946 22.3103 30 20.2262 30 18H34.5L28.5 12L22.5 18H27C27 19.3883 26.6845 20.7039 26.1214 21.8789ZM11.9032 7.6607L14.1211 9.87856C15.2961 9.31548 16.6117 9 18 9C19.515 9 20.955 9.375 22.2 10.05L24.39 7.86C22.545 6.69 20.355 6 18 6C15.7738 6 13.6897 6.60543 11.9032 7.6607ZM8.45402 6.33266L6.3327 8.45398L27.5459 29.6672L29.6672 27.5459L8.45402 6.33266Z" fill="#BA4E4E"/>
</svg>
