<svg width="20" height="20" viewBox="0 0 20 20" fill="none" xmlns="http://www.w3.org/2000/svg">
    <g clip-path="url(#clip0_15_3476)">
        <path d="M0 10C0 4.47715 4.47715 0 10 0V0C15.5228 0 20 4.47715 20 10V10C20 15.5228 15.5228 20 10 20V20C4.47715 20 0 15.5228 0 10V10Z" fill="white"/>
        <path d="M5.71429 14.6667C5.71429 15.4 6.35714 16 7.14286 16H12.8571C13.6429 16 14.2857 15.4 14.2857 14.6667V6.66667H5.71429V14.6667ZM15 4.66667H12.5L11.7857 4H8.21429L7.5 4.66667H5V6H15V4.66667Z" fill="#BA4E4E"/>
    </g>
    <defs>
        <clipPath id="clip0_15_3476">
            <rect width="20" height="20" fill="white"/>
        </clipPath>
    </defs>
</svg>