<svg width="20" height="20" viewBox="0 0 20 20" fill="none" xmlns="http://www.w3.org/2000/svg">
<path d="M10 0C7.59902 0 5.39626 0.849651 3.67188 2.26172L2.62109 1.21094L1.2168 2.61523L2.26367 3.66797C0.849971 5.39285 0 7.59748 0 10C0 15.52 4.48 20 10 20C12.402 20 14.6054 19.1494 16.3301 17.7363L17.3789 18.7891L18.7891 17.3789L17.7383 16.3281C19.1503 14.6037 20 12.401 20 10C20 4.48 15.52 0 10 0ZM10 2C14.42 2 18 5.58 18 10C18 11.85 17.3705 13.5504 16.3105 14.9004L5.09961 3.68945C6.44961 2.62945 8.15 2 10 2ZM3.68945 5.09961L14.9004 16.3105C13.5504 17.3705 11.85 18 10 18C5.58 18 2 14.42 2 10C2 8.15 2.62945 6.44961 3.68945 5.09961Z" fill="#333333" fill-opacity="0.87"/>
</svg>
