<?xml version="1.0" encoding="UTF-8" standalone="no"?>
<svg
   xmlns:dc="http://purl.org/dc/elements/1.1/"
   xmlns:cc="http://creativecommons.org/ns#"
   xmlns:rdf="http://www.w3.org/1999/02/22-rdf-syntax-ns#"
   xmlns:svg="http://www.w3.org/2000/svg"
   xmlns="http://www.w3.org/2000/svg"
   xmlns:sodipodi="http://sodipodi.sourceforge.net/DTD/sodipodi-0.dtd"
   xmlns:inkscape="http://www.inkscape.org/namespaces/inkscape"
   width="408"
   height="533"
   viewBox="0 0 408 533"
   fill="none"
   version="1.1"
   id="svg23"
   sodipodi:docname="logo.svg"
   inkscape:version="0.92.2 (5c3e80d, 2017-08-06)">
  <metadata
     id="metadata27">
    <rdf:RDF>
      <cc:Work
         rdf:about="">
        <dc:format>image/svg+xml</dc:format>
        <dc:type
           rdf:resource="http://purl.org/dc/dcmitype/StillImage" />
        <dc:title></dc:title>
      </cc:Work>
    </rdf:RDF>
  </metadata>
  <sodipodi:namedview
     pagecolor="#ffffff"
     bordercolor="#666666"
     borderopacity="1"
     objecttolerance="10"
     gridtolerance="10"
     guidetolerance="10"
     inkscape:pageopacity="0"
     inkscape:pageshadow="2"
     inkscape:window-width="1920"
     inkscape:window-height="1057"
     id="namedview25"
     showgrid="false"
     inkscape:zoom="0.4427767355"
     inkscape:cx="-144.934322"
     inkscape:cy="266.5"
     inkscape:window-x="-8"
     inkscape:window-y="-8"
     inkscape:window-maximized="1"
     inkscape:current-layer="g16" />
  <g
     opacity="0.05"
     id="g16">
    <path
       style="fill:#709302"
       inkscape:connector-curvature="0"
       id="path2"
       d="M 369.441,114.649 C 390.528,93.7452 390.677,59.705 369.773,38.618 348.869,17.531 314.829,17.3825 293.742,38.2863 272.655,59.19 272.506,93.2302 293.41,114.317 c 20.904,21.087 54.944,21.236 76.031,0.332 z" />
    <path
       style="fill:#333333"
       inkscape:connector-curvature="0"
       id="path4"
       d="m 183.983,181.441 c 21.087,-20.904 21.236,-54.944 0.332,-76.031 -20.904,-21.0867 -54.944,-21.2353 -76.031,-0.332 -21.0868,20.904 -21.2353,54.944 -0.332,76.031 20.904,21.087 54.944,21.236 76.031,0.332 z" />
    <path
       style="fill:#00b5e1"
       inkscape:connector-curvature="0"
       id="path6"
       d="m 114.835,369.266 c 21.087,-20.904 21.235,-54.944 0.331,-76.031 C 94.2626,272.148 60.2224,272 39.1354,292.903 c -21.0869,20.904 -21.2355,54.944 -0.3317,76.031 20.9038,21.087 54.944,21.236 76.0313,0.332 z" />
    <circle
       style="fill:#e38c05"
       r="58.4375"
       id="ellipse8"
       cy="146.9380035"
       cx="147.9380035" />
    <path
       style="clip-rule:evenodd;fill:#709302;fill-rule:evenodd"
       inkscape:connector-curvature="0"
       id="path10"
       d="m 408,112.272 -14.371,24.803 c 4.939,2.861 9.733,5.942 14.371,9.228 z m 0,339.174 c -14.623,10.363 -30.705,18.602 -47.773,24.422 -27.113,9.245 -55.988,12.138 -84.397,8.454 -28.409,-3.683 -55.591,-13.844 -79.45,-29.698 -23.859,-15.855 -43.757,-36.979 -58.158,-61.742 l -40.413,23.502 c 18.001,30.954 42.873,57.359 72.697,77.177 29.824,19.818 63.802,32.519 99.313,37.123 35.51,4.605 71.604,0.989 105.496,-10.568 11.268,-3.842 22.192,-8.527 32.685,-14.002 z" />
    <path
       style="clip-rule:evenodd;fill:#e38c05;fill-rule:evenodd"
       inkscape:connector-curvature="0"
       id="path12"
       d="m 408,209.543 c -25.725,-31.101 -64.611,-50.918 -108.125,-50.918 -77.458,0 -140.25,62.792 -140.25,140.25 0,77.458 62.792,140.25 140.25,140.25 43.514,0 82.4,-19.817 108.125,-50.918 z m -14.625,89.332 c 0,51.639 -41.861,93.5 -93.5,93.5 -51.639,0 -93.5,-41.861 -93.5,-93.5 0,-51.639 41.861,-93.5 93.5,-93.5 51.639,0 93.5,41.861 93.5,93.5 z" />
  </g>
  <defs
     id="defs21">
    <clipPath
       id="clip0">
      <rect
         x="0.954102"
         y="0.436661"
         width="407.046"
         height="532.188"
         fill="white"
         id="rect18" />
    </clipPath>
  </defs>
</svg>
